<?xml version="1.0" encoding="utf-8"?>
<!-- Generator: Adobe Illustrator 23.0.0, SVG Export Plug-In . SVG Version: 6.00 Build 0)  -->
<svg version="1.1" id="Capa_1" xmlns="http://www.w3.org/2000/svg" xmlns:xlink="http://www.w3.org/1999/xlink" x="0px" y="0px"
	 viewBox="0 0 52.1 52.1" style="enable-background:new 0 0 52.1 52.1;" xml:space="preserve">
<style type="text/css">
	.st0{fill:#525252;}
</style>
<path class="st0" d="M48.6,9.3c0-4-11.1-6.2-22-6.2s-22,2.1-22,6.2c0,0.9,0.6,1.7,1.6,2.4l15.1,20.7v15.4c0,0.4,0.2,0.7,0.6,0.9
	l0.6,0.2l9.4-9.4v-7.1l15.1-20.7l0,0C48.1,11.1,48.6,10.3,48.6,9.3z M26.7,4.9c12.3,0,20.2,2.6,20.2,4.4c0,0.4-0.4,0.8-1,1.2l0,0
	l0,0c-2.5,1.6-9.4,3.2-19.2,3.2c-9.8,0-16.7-1.6-19.2-3.2l0,0l-0.4-0.2c-0.4-0.3-0.7-0.7-0.7-1C6.5,7.5,14.3,4.9,26.7,4.9z
	 M30.2,38.8l-7,7V33.1h7V38.8z M30.6,31.3h-7.9l-13.1-18c4.2,1.4,10.7,2.1,17.1,2.1s12.8-0.7,17.1-2.1L30.6,31.3z"/>
</svg>
