<?xml version="1.0" encoding="utf-8"?>
<!-- Generator: Adobe Illustrator 23.0.0, SVG Export Plug-In . SVG Version: 6.00 Build 0)  -->
<svg version="1.1" id="Capa_1" xmlns="http://www.w3.org/2000/svg" xmlns:xlink="http://www.w3.org/1999/xlink" x="0px" y="0px"
	 viewBox="0 0 451 451" style="enable-background:new 0 0 451 451;" xml:space="preserve">
<style type="text/css">
	.st0{fill:#525252;}
</style>
<g>
	<path class="st0" d="M434.3,413.5L331.5,310.7c27.6-31.7,44.3-73.1,44.3-118.3c0-99.5-81-180.4-180.4-180.4
		C95.9,12,15,92.9,15,192.4s81,180.4,180.4,180.4c45.2,0,86.6-16.7,118.3-44.3l102.8,102.8c2.4,2.4,5.7,3.8,8.9,3.8s6.5-1.2,8.9-3.8
		C439.2,426.4,439.2,418.3,434.3,413.5z M40.2,192.4c0-85.6,69.6-155.1,155.1-155.1c85.6,0,155.1,69.6,155.1,155.1
		s-69.5,155.2-155.1,155.2C109.8,347.5,40.2,277.9,40.2,192.4z"/>
</g>
</svg>
