<?xml version="1.0" encoding="utf-8"?>
<!-- Generator: Adobe Illustrator 23.0.0, SVG Export Plug-In . SVG Version: 6.00 Build 0)  -->
<svg version="1.1" id="Layer_1_1_" xmlns="http://www.w3.org/2000/svg" xmlns:xlink="http://www.w3.org/1999/xlink" x="0px" y="0px"
	 viewBox="0 0 512 512" style="enable-background:new 0 0 512 512;" xml:space="preserve">
<style type="text/css">
	.st0{fill:none;stroke:#525252;stroke-width:9;stroke-miterlimit:10;}
	.st1{fill:#525252;}
	.st2{fill:#057EE6;}
</style>
<line class="st0" x1="293.8" y1="115.8" x2="395.1" y2="217.5"/>
<line class="st0" x1="309" y1="238.9" x2="379.9" y2="249.9"/>
<line class="st0" x1="396.9" y1="293" x2="298" y2="396.9"/>
<line class="st0" x1="256.1" y1="282.4" x2="256" y2="379"/>
<line class="st0" x1="109" y1="191.9" x2="225" y2="389.7"/>
<line class="st0" x1="109" y1="306.9" x2="225" y2="126.9"/>
<line class="st0" x1="127.8" y1="376.8" x2="203.1" y2="415.5"/>
<line class="st0" x1="129" y1="167.9" x2="205" y2="206.9"/>
<line class="st0" x1="134" y1="122.9" x2="205" y2="97.9"/>
<path class="st1" d="M84,97.9c26.5,0,48,21.5,48,48s-21.5,48-48,48s-48-21.5-48-48S57.5,97.9,84,97.9 M84,88.9
	c-31.5,0-57,25.5-57,57s25.5,57,57,57s57-25.5,57-57S115.5,88.9,84,88.9L84,88.9z"/>
<path class="st2" d="M253,29.9c26.5,0,48,21.5,48,48s-21.5,48-48,48s-48-21.5-48-48S226.5,29.9,253,29.9 M253,20.9
	c-31.5,0-57,25.5-57,57s25.5,57,57,57s57-25.5,57-57S284.5,20.9,253,20.9L253,20.9z"/>
<path class="st1" d="M254,182.9c26.5,0,48,21.5,48,48s-21.5,48-48,48s-48-21.5-48-48S227.5,182.9,254,182.9 M254,173.9
	c-31.5,0-57,25.5-57,57s25.5,57,57,57s57-25.5,57-57S285.5,173.9,254,173.9L254,173.9z"/>
<path class="st2" d="M434,209.9c26.5,0,48,21.5,48,48s-21.5,48-48,48s-48-21.5-48-48S407.5,209.9,434,209.9 M434,200.9
	c-31.5,0-57,25.5-57,57s25.5,57,57,57s57-25.5,57-57S465.5,200.9,434,200.9L434,200.9z"/>
<path class="st1" d="M257,383.9c26.5,0,48,21.5,48,48s-21.5,48-48,48s-48-21.5-48-48S230.5,383.9,257,383.9 M257,374.9
	c-31.5,0-57,25.5-57,57s25.5,57,57,57s57-25.5,57-57S288.5,374.9,257,374.9L257,374.9z"/>
<path class="st2" d="M78,305.9c26.5,0,48,21.5,48,48s-21.5,48-48,48s-48-21.5-48-48S51.5,305.9,78,305.9 M78,296.9
	c-31.5,0-57,25.5-57,57s25.5,57,57,57s57-25.5,57-57S109.5,296.9,78,296.9L78,296.9z"/>
</svg>
