<?xml version="1.0" encoding="utf-8"?>
<!-- Generator: Adobe Illustrator 23.0.0, SVG Export Plug-In . SVG Version: 6.00 Build 0)  -->
<svg version="1.1" id="Layer_1" xmlns="http://www.w3.org/2000/svg" xmlns:xlink="http://www.w3.org/1999/xlink" x="0px" y="0px"
	 viewBox="0 0 500 500" style="enable-background:new 0 0 500 500;" xml:space="preserve">
<style type="text/css">
	.st0{fill:none;stroke:#525252;stroke-width:9;stroke-miterlimit:10;}
	.st1{fill:none;stroke:#057EE6;stroke-width:9;stroke-miterlimit:10;}
</style>
<path class="st0" d="M64.8,220.8h29c10.5,0,18.9,8.5,18.9,18.9V344l-66.9,65.6V239.7C45.9,229.3,54.4,220.8,64.8,220.8z"/>
<path class="st0" d="M157.4,151.2v153.5l32.7-39.3l34.1,39.3V151.2c0-11.5-9.4-20.9-20.9-20.9h-25
	C166.8,130.3,157.4,139.7,157.4,151.2z"/>
<path class="st0" d="M317,43.9h-28.2c-11.1,0-20,9-20,20v269l68.8-68.9l-0.5-200.1C337,52.8,328.1,43.9,317,43.9z"/>
<polygon class="st1" points="45.9,463.9 192.8,319.8 264.9,391.9 399.9,262.2 358.6,222.2 470,222.2 470,332.2 428.1,293.6 
	271.5,452.2 194.7,382.7 113.5,463.9 "/>
</svg>
