<?xml version="1.0" encoding="utf-8"?>
<!-- Generator: Adobe Illustrator 23.0.0, SVG Export Plug-In . SVG Version: 6.00 Build 0)  -->
<svg version="1.1" id="Layer_1" xmlns="http://www.w3.org/2000/svg" xmlns:xlink="http://www.w3.org/1999/xlink" x="0px" y="0px"
	 viewBox="0 0 500 500" style="enable-background:new 0 0 500 500;" xml:space="preserve">
<style type="text/css">
	.st0{fill:none;stroke:#525252;stroke-width:9;stroke-miterlimit:10;}
	.st1{fill:none;stroke:#057EE6;stroke-width:9;stroke-miterlimit:10;}
</style>
<path class="st0" d="M358.5,30.5H54.7c-13,0-21.7,8.7-21.7,21.7v217c0,13,8.7,21.7,21.7,21.7h21.7v108.5l108.5-108.5h173.6
	c13,0,21.7-8.7,21.7-21.7v-217C380.2,39.2,371.5,30.5,358.5,30.5z M119.8,182.4L119.8,182.4c-13,0-21.7-8.7-21.7-21.7l0,0
	c0-13,8.7-21.7,21.7-21.7l0,0c13,0,21.7,8.7,21.7,21.7l0,0C141.5,173.7,132.8,182.4,119.8,182.4z M206.6,182.4L206.6,182.4
	c-13,0-21.7-8.7-21.7-21.7l0,0c0-13,8.7-21.7,21.7-21.7l0,0c13,0,21.7,8.7,21.7,21.7l0,0C228.3,173.7,219.6,182.4,206.6,182.4z
	 M293.4,182.4L293.4,182.4c-13,0-21.7-8.7-21.7-21.7l0,0c0-13,8.7-21.7,21.7-21.7l0,0c13,0,21.7,8.7,21.7,21.7l0,0
	C315.1,173.7,306.4,182.4,293.4,182.4z"/>
<path class="st1" d="M467,247.5v130.2c0,13-10.9,21.7-21.7,21.7h-21.7v65.1l-86.8-65.1H228.3c-13,0-21.7-8.7-21.7-21.7v-43.4h195.3
	c13,0,21.7-8.7,21.7-21.7v-86.8h21.7C456.1,225.8,467,236.6,467,247.5z"/>
</svg>
