<?xml version="1.0" encoding="utf-8"?>
<!-- Generator: Adobe Illustrator 23.0.0, SVG Export Plug-In . SVG Version: 6.00 Build 0)  -->
<svg version="1.1" id="Layer_1" xmlns="http://www.w3.org/2000/svg" xmlns:xlink="http://www.w3.org/1999/xlink" x="0px" y="0px"
	 viewBox="0 0 500 500" style="enable-background:new 0 0 500 500;" xml:space="preserve">
<style type="text/css">
	.st0{fill:none;stroke:#525252;stroke-width:9;stroke-miterlimit:10;}
	.st1{fill:none;stroke:#535353;stroke-width:5;stroke-miterlimit:10;}
	.st2{fill:none;stroke:#057EE6;stroke-width:5;stroke-miterlimit:10;}
</style>
<path class="st0" d="M342.1,437.6H157.4c-6.8,0-12.1-5.3-12.1-12s5.3-12,12.1-12H156c21.2-2.9,32.8-11.1,39.1-19.8h110.4
	c6.3,8.7,17.4,17.4,39,19.8h-1.9c6.8,0,12,5.3,12,12C354.1,432.3,348.8,437.6,342.1,437.6z"/>
<path class="st0" d="M438.5,374H305.9h-7.7h-96.4h-12.5H61.5c-15,0-27-12-27.5-26.5l0,0V347v-0.5v-2.9v-0.5v-42v-0.5V68.7
	c0-17.4,14-31.3,31.3-31.3h369.3c17.4,0,31.3,14,31.3,31.3v226.6l0,0v52.1l0,0C465.5,361.9,453.5,374,438.5,374z"/>
<path class="st1" d="M275.1,338.8c0-3.9-2.9-6.8-6.8-6.8h-36.2c-3.9,0-6.8,2.9-6.8,6.8v4.8c0,3.9,2.9,6.8,6.8,6.8h36.2
	c3.9,0,6.8-2.9,6.8-6.8V338.8z"/>
<path class="st2" d="M196.5,164.2c5.8-0.5,11.6,1.4,15.9,5.8l8.2,8.2c0.5,0.5,1,0.5,1,1l22.2-22.2l-8.2-8.2
	c-4.3-4.3-6.3-10.6-5.8-16.9c1-10.6-2.4-21.2-10.1-29.4c-8.2-8.2-18.8-11.6-29.4-10.1c-3.9,0.5-5.8,5.3-2.9,8.2l10.6,10.6
	c4.3,4.3,4.3,11.6,0,15.9l-6.8,6.8c-4.3,4.3-11.6,4.3-15.9,0l-9.6-9.6c-2.9-2.9-8.2-1-8.2,3.4c-0.5,9.6,3.4,19.3,10.6,26.5
	C176.2,161.3,186.4,164.7,196.5,164.2z"/>
<path class="st2" d="M303,206.2c-5.8,0.5-11.6-1.4-15.9-5.8l-9.6-9.6L255.3,213c0.5,0.5,1,1,1,1.4l7.2,7.2
	c4.3,4.3,6.3,10.6,5.8,16.9c-1,10.6,2.4,21.2,10.1,29.4c8.2,8.2,18.8,11.6,29.4,10.1c3.9-0.5,5.8-5.3,2.9-8.2l-10.6-10.6
	c-4.3-4.3-4.3-11.6,0-15.9l6.8-6.8c4.3-4.3,11.6-4.3,15.9,0l9.6,9.6c2.9,2.9,8.2,1,8.2-3.4c0.5-9.6-3.4-19.3-10.6-26.5
	C323.3,208.6,313.2,205.2,303,206.2z"/>
<path class="st2" d="M294.4,151.7H317l22.7-44.8l-11.1-11.1l-44.8,22.7v22.7L221.6,202l-11.1-11.1l-44.4,44.4
	c-9.2,9.2-9.2,24.1,0,33.3s24.1,9.2,33.3,0l44.4-44.4l-11.1-11.1L294.4,151.7z"/>
</svg>
