<?xml version="1.0" encoding="utf-8"?>
<!-- Generator: Adobe Illustrator 23.0.0, SVG Export Plug-In . SVG Version: 6.00 Build 0)  -->
<svg version="1.1" id="Layer_1" xmlns="http://www.w3.org/2000/svg" xmlns:xlink="http://www.w3.org/1999/xlink" x="0px" y="0px"
	 viewBox="0 0 600 600" style="enable-background:new 0 0 600 600;" xml:space="preserve">
<style type="text/css">
	.st0{fill:none;stroke:#ffffff;stroke-width:9;stroke-miterlimit:10;}
	.st1{fill:none;stroke:#ffffff;stroke-width:9;stroke-miterlimit:10;}
</style>
<path class="st0" d="M451,359.3c-1.6-15.1-116.7-100.9-134.5-81.6c-6.3,6.9-26.5,26.7-28.1,61.6c-1.3,25.5-165.8-133.7-137.6-137.6
	c34.6-4.8,54.6-21.8,61.6-28.1c19.4-17.8-66.5-132.9-81.5-134.5c-15.1-1.6-60.1,33.2-67.3,48.2c-7.2,15.1-21.9,70-9.9,102.1
	C64.6,219.1,121.8,298,158,334.1s113,91.3,142.6,102.4c32.2,12,87.1-2.6,102.1-9.9C417.8,419.4,452.5,374.3,451,359.3z"/>
<path class="st1" d="M342.3,225c0-21.4-8.6-40.6-22.6-54.7l0,0c-14.1-14-33.3-22.6-54.6-22.6l0,0c-7.7,0-14-6.2-14-14l0,0
	c0-7.7,6.3-14,14-14l0,0c58.1,0,105.2,47.1,105.3,105.3l0,0c0,7.7-6.3,14-14,14l0,0C348.6,239,342.3,232.7,342.3,225L342.3,225z"/>
<path class="st1" d="M399.6,225c0-37.3-15-70.7-39.5-95.2l0,0c-24.4-24.4-57.9-39.4-95.2-39.4l0,0l0,0c-11.1,0-20.1-9-20.1-20.1l0,0
	c0-11.1,9-20.1,20.1-20.1l0,0c96.5,0,174.8,78.2,174.8,174.8l0,0c0,11.1-9,20.1-20.1,20.1l0,0C408.5,245.1,399.6,236.1,399.6,225
	L399.6,225z"/>
</svg>
