<?xml version="1.0" encoding="utf-8"?>
<!-- Generator: Adobe Illustrator 23.0.0, SVG Export Plug-In . SVG Version: 6.00 Build 0)  -->
<svg version="1.1" id="Layer_1" xmlns="http://www.w3.org/2000/svg" xmlns:xlink="http://www.w3.org/1999/xlink" x="0px" y="0px"
	 viewBox="0 0 500 500" style="enable-background:new 0 0 500 500;" xml:space="preserve">
<style type="text/css">
	.st0{fill:none;stroke:#535353;stroke-width:9;stroke-miterlimit:10;}
	.st1{fill:none;stroke:#057EE6;stroke-width:9;stroke-miterlimit:10;}
</style>
<path class="st0" d="M272.5,349c0,8.7,1.6,14.3,4.8,17c3.2,2.6,7.4,4.4,12.8,5.2c5.3,0.8,9.1,1.9,11.3,3.4c2.2,1.5,3.3,4.4,3.3,8.9
	c0,5.9-5.2,8.9-15.4,8.9c-4.4,0-11.1-0.5-20-1.6s-15.4-1.6-19.7-1.6s-10.5,0.7-18.6,2.1c-8.2,1.4-14.3,2.1-18.4,2.1
	s-7.6-1.2-10.5-3.5s-4.4-5.4-4.4-9.1c0-2.3,0.8-4.3,2.4-6.1c1.6-1.7,5.7-3.1,12.2-4.1c6.6-1.1,11.1-3.2,13.7-6.4
	c2.6-3.2,3.9-10.9,3.9-23.1v-89.6c0-7.6-1.6-12.6-4.8-15.1s-7.9-4.3-14.1-5.6s-10-2.8-11.6-4.8c-1.5-2-2.3-4.4-2.3-7.3
	c0-3.2,1.3-5.9,3.9-7.9c2.6-2.1,5.6-3.1,9.2-3.1c3,0,7.3,0.7,12.9,2s9.7,2,12.4,2c3,0,7.6-0.5,13.8-1.4c6.2-1,10.8-1.4,13.8-1.4
	c6.6,0,9.9,5.5,9.9,16.5c0,1.8-0.1,4.1-0.3,7s-0.3,4.9-0.3,6L272.5,349L272.5,349L272.5,349z"/>
<path class="st1" d="M250.8,118.6c8.1,0,15.1,2.9,21,8.9s8.9,12.9,8.9,21c0,7.2-2.9,13.3-8.7,18.4c-5.8,5-12.7,7.5-20.6,7.5
	s-14.8-2.8-20.5-8.3c-5.7-5.6-8.6-12.2-8.6-20c0-7.4,2.9-13.8,8.6-19.3C236.6,121.4,243.2,118.6,250.8,118.6z"/>
</svg>
