<?xml version="1.0" encoding="utf-8"?>
<!-- Generator: Adobe Illustrator 23.0.0, SVG Export Plug-In . SVG Version: 6.00 Build 0)  -->
<svg version="1.1" id="Layer_1" xmlns="http://www.w3.org/2000/svg" xmlns:xlink="http://www.w3.org/1999/xlink" x="0px" y="0px"
	 viewBox="0 0 500 500" style="enable-background:new 0 0 500 500;" xml:space="preserve">
<style type="text/css">
	.st0{fill:none;stroke:#525252;stroke-width:9;stroke-miterlimit:10;}
	.st1{fill:none;stroke:#057EE6;stroke-width:9;stroke-miterlimit:10;}
</style>
<path class="st0" d="M138,56.5h249.3v0.5c-14.7,22.7-23,34.8-24.9,36.3h-66.6c9.1,10.7,15.4,23.8,18.7,39.2h71
	c0.9,0.2,1.3,0.5,1.3,1c-15.9,23.9-24,35.8-24.4,35.8h-46.2c-1,12.3-6.9,27.1-17.6,44.4c-14.2,17.5-27.7,28.8-40.7,34
	c-24.2,11.6-47.4,17.4-69.4,17.4v0.5c0,1.7,50,61.2,150,178.3h-66c-97.4-113.7-146.1-170.8-146.1-171.3v-34.5l0.5-1.3
	c8.6,1.2,18.8,1.8,30.3,1.8c54.6,0,88.5-17.7,101.9-53.2c2.1-5.2,3.1-10.5,3.1-16.1H113.9c-0.7,0-1-0.3-1-1
	c16.4-23.9,24.8-35.8,25.1-35.8h117.6V132c-6.7-13.7-19.8-24.3-39.1-31.9c-13.8-4.5-26.3-6.7-37.3-6.7h-65.8v-1.3
	C129.3,68.4,137.5,56.5,138,56.5z"/>
<polygon class="st1" points="362.4,169.4 111.6,169.4 138,132.6 388.9,132.6 "/>
</svg>
