<?xml version="1.0" encoding="utf-8"?>
<!-- Generator: Adobe Illustrator 23.0.0, SVG Export Plug-In . SVG Version: 6.00 Build 0)  -->
<svg version="1.1" id="Capa_1" xmlns="http://www.w3.org/2000/svg" xmlns:xlink="http://www.w3.org/1999/xlink" x="0px" y="0px"
	 viewBox="0 0 466 466" style="enable-background:new 0 0 466 466;" xml:space="preserve">
<style type="text/css">
	.st0{fill:none;stroke:#525252;stroke-width:9;stroke-miterlimit:10;}
	.st1{fill:none;stroke:#057EE6;stroke-width:9;stroke-miterlimit:10;}
</style>
<path class="st0" d="M224.7,185.2L224.7,185.2c17.4-17.4,17.1-45.5-0.5-62.5c-20.5-19.7-46.8-45.1-67-64.7
	c-17.2-16.7-44.7-16.4-61.5,0.6L53,101.7c-16.9,17.1-16.9,44.7,0.1,61.7l65.8,65.8c17.1,17.1,44.8,17.1,61.9,0l0,0"/>
<path class="st0" d="M228.8,268.3L228.8,268.3c-17.4,17.4-17.1,45.5,0.5,62.5c20.5,19.7,46.8,45.1,67,64.7
	c17.2,16.7,44.7,16.4,61.5-0.6l42.7-43.1c16.9-17.1,16.9-44.7-0.1-61.7l-65.8-65.8c-17.1-17.1-44.8-17.1-61.9,0l0,0"/>
<path class="st1" d="M319.5,319.6L319.5,319.6c-12.5,12.5-32.7,12.5-45.1,0l-128-128c-12.5-12.5-12.5-32.7,0-45.1l0,0
	c12.5-12.5,32.7-12.5,45.1,0l128,128C331.9,286.9,331.9,307.1,319.5,319.6z"/>
</svg>
