<?xml version="1.0" encoding="utf-8"?>
<!-- Generator: Adobe Illustrator 23.0.0, SVG Export Plug-In . SVG Version: 6.00 Build 0)  -->
<svg version="1.1" id="Capa_1" xmlns="http://www.w3.org/2000/svg" xmlns:xlink="http://www.w3.org/1999/xlink" x="0px" y="0px"
	 viewBox="0 0 489.7 489.7" style="enable-background:new 0 0 489.7 489.7;" xml:space="preserve">
<style type="text/css">
	.st0{fill:#525252;}
</style>
<g>
	<path class="st0" d="M397.5,86.4H84.1c-2.5,0-4.5-2-4.5-4.5v0c0-2.5,2-4.5,4.5-4.5h313.4c2.5,0,4.5,2,4.5,4.5v0
		C402,84.4,400,86.4,397.5,86.4z"/>
</g>
<g>
	<path class="st0" d="M397.5,213.6H84.1c-2.5,0-4.5-2-4.5-4.5l0,0c0-2.5,2-4.5,4.5-4.5h313.4c2.5,0,4.5,2,4.5,4.5l0,0
		C402,211.6,400,213.6,397.5,213.6z"/>
</g>
<g>
	<path class="st0" d="M397.5,338.5H84.1c-2.5,0-4.5-2-4.5-4.5v0c0-2.5,2-4.5,4.5-4.5h313.4c2.5,0,4.5,2,4.5,4.5v0
		C402,336.5,400,338.5,397.5,338.5z"/>
</g>
</svg>
