<?xml version="1.0" encoding="utf-8"?>
<!-- Generator: Adobe Illustrator 23.0.0, SVG Export Plug-In . SVG Version: 6.00 Build 0)  -->
<svg version="1.1" id="Layer_1" xmlns="http://www.w3.org/2000/svg" xmlns:xlink="http://www.w3.org/1999/xlink" x="0px" y="0px"
	 viewBox="0 0 500 500" style="enable-background:new 0 0 500 500;" xml:space="preserve">
<style type="text/css">
	.st0{fill:none;stroke:#525252;stroke-width:9;stroke-miterlimit:10;}
	.st1{fill:#525252;}
	.st2{fill:#FFFFFF;}
	.st3{fill:#057EE6;}
</style>
<path class="st0" d="M405.9,377.2H42c-4.2,0-8-3.4-8-8V132.1c0-4.2,3.4-8,8-8h363.9c4.2,0,8,3.4,8,8v237.3
	C413.8,373.9,410.4,377.2,405.9,377.2z"/>
<g>
	<path class="st1" d="M406.3,183.1h-367c-4.3,0-8.1-2.1-8.1-4.9c0-2.6,3.4-4.9,8.1-4.9h367c4.3,0,8.1,2.1,8.1,4.9
		C414.2,180.9,410.8,183.1,406.3,183.1z"/>
</g>
<g>
	<path class="st1" d="M404.9,247.6h-367c-4.3,0-8.1-2.1-8.1-4.9c0-2.6,3.4-4.9,8.1-4.9h367c4.3,0,8.1,2.1,8.1,4.9
		C412.8,245.4,409.4,247.6,404.9,247.6z"/>
</g>
<g>
	<path class="st1" d="M404.9,311.1h-367c-4.3,0-8.1-2.1-8.1-4.9c0-2.6,3.4-4.9,8.1-4.9h367c4.3,0,8.1,2.1,8.1,4.9
		C412.8,308.9,409.4,311.1,404.9,311.1z"/>
</g>
<g>
	<path class="st1" d="M150.5,379.2c-2.9,0-5.4-3.4-5.4-8v-190c0-4.2,2.3-8,5.4-8s5.4,3.4,5.4,8v190
		C155.9,375.8,153.4,379.2,150.5,379.2z"/>
</g>
<g>
	<path class="st1" d="M287.4,380.6c-2.6,0-5-3.4-5-8v-190c0-4.2,2.1-8,5-8c2.9,0,5,3.4,5,8v190C292.4,377.3,290,380.6,287.4,380.6z"
		/>
</g>
<circle class="st2" cx="406.4" cy="298" r="59.8"/>
<path class="st1" d="M441,270.5c-3.4,0-6.3,3-6.3,6.3c0,1.3,0.2,2.3,1.1,3.2l-14.4,20.9c-0.2,0-0.6,0-1.1,0c-0.2,0-0.6,0-0.6,0
	l-10.1-17.5c0.9-1.1,1.3-2.3,1.3-4c0-3.4-3-6.3-6.3-6.3s-6.3,3-6.3,6.3c0,1.3,0.6,2.8,1.3,3.8l-12.7,22.6c-0.9,0-1.3,0.2-1.9,0.6
	l-7-7.6c0.2-0.6,0.2-1.1,0.2-1.7c0-3.4-3-6.3-6.3-6.3s-6.3,3-6.3,6.3c0,0.6,0,1.1,0.2,1.7l-16.9,17.8c-1.1,1.1-1.1,3,0,4
	c0.6,0.6,1.3,0.9,1.9,0.9c0.9,0,1.7-0.2,2.1-0.9l16.7-17.5c0.9,0.2,1.7,0.6,2.3,0.6s1.7-0.2,2.3-0.6l7,7.6c-0.2,0.6-0.2,1.1-0.2,1.7
	c0,3.4,3,6.3,6.3,6.3s6.3-3,6.3-6.3c0-1.7-0.6-3-1.7-4l12.5-22l10.4,18c-0.6,1.1-0.9,2.1-0.9,3.2c0,3.4,3,6.3,6.3,6.3s6.3-3,6.3-6.3
	c0-1.1-0.2-2.1-0.9-3l14.6-21.1c0.2,0,0.2,0,0.6,0c3.4,0,6.3-3,6.3-6.3C447.1,273.3,444.6,270.5,441,270.5z"/>
<path class="st3" d="M406.4,361.8c-36.5,0-66.1-29.7-66.1-66.1s29.7-66.2,66.1-66.2s66.1,29.7,66.1,66.2S442.8,361.8,406.4,361.8z
	 M406.4,240.5c-30.4,0-55.1,24.7-55.1,55.2s24.7,55.1,55.1,55.1s55.1-24.7,55.1-55.1S436.8,240.5,406.4,240.5z"/>
</svg>
