<?xml version="1.0" encoding="utf-8"?>
<!-- Generator: Adobe Illustrator 23.0.0, SVG Export Plug-In . SVG Version: 6.00 Build 0)  -->
<svg version="1.1" id="Capa_1" xmlns="http://www.w3.org/2000/svg" xmlns:xlink="http://www.w3.org/1999/xlink" x="0px" y="0px"
	 viewBox="0 0 500 500" style="enable-background:new 0 0 500 500;" xml:space="preserve">
<style type="text/css">
	.st0{fill:none;stroke:#FFFFFF;stroke-width:9;stroke-miterlimit:10;}
	.st1{fill:none;stroke:#FFFFFF;stroke-width:9;stroke-miterlimit:10;}
</style>
<path class="st0" d="M250,245.2c48.5,0,87.8-47.7,87.8-106.6S324.9,32,250,32s-87.8,47.7-87.8,106.6S201.5,245.2,250,245.2z"/>
<path d="M84.2,408C84.2,404.4,84.2,407,84.2,408L84.2,408z"/>
<path d="M415.8,410.8C415.8,409.9,415.8,404,415.8,410.8L415.8,410.8z"/>
<path class="st1" d="M415.6,403.7c-1.6-102.6-15-131.8-117.5-150.3c0,0-14.4,18.4-48.1,18.4s-48.1-18.4-48.1-18.4
	c-101.4,18.3-115.6,47.1-117.5,147c-0.2,8.2-0.2,8.6-0.3,7.6c0,1.8,0,5.1,0,10.8c0,0,24.4,49.2,165.8,49.2s165.8-49.2,165.8-49.2
	c0-3.7,0-6.2,0-8C415.8,411.4,415.7,410.3,415.6,403.7z"/>
</svg>
