<?xml version="1.0" encoding="utf-8"?>
<!-- Generator: Adobe Illustrator 23.0.0, SVG Export Plug-In . SVG Version: 6.00 Build 0)  -->
<svg version="1.1" id="Layer_1" xmlns="http://www.w3.org/2000/svg" xmlns:xlink="http://www.w3.org/1999/xlink" x="0px" y="0px"
	 viewBox="0 0 500 500" style="enable-background:new 0 0 500 500;" xml:space="preserve">
<style type="text/css">
	.st0{fill:none;stroke:#525252;stroke-width:9;stroke-miterlimit:10;}
	.st1{fill:none;stroke:#057EE6;stroke-width:9;stroke-miterlimit:10;}
</style>
<path class="st0" d="M456.9,245c-4.5-36.1-34.7-62.7-70.8-62.7h-49.6c-35.6,0-66.3,27.1-70.4,62.7l-6.8,57.7
	c-0.9,7.7,3.6,14.4,11.3,16.2c6.8,1.4,13.5,2.7,20.8,3.6l52.8-39.7c6.3-4.5,13.5-7.2,21.6-7.2c15.3,0,28.9,9.9,34.3,24.4l8.6,25.7
	c15.3-1.8,30.2-3.6,44.7-6.8c7.2-1.8,12.2-8.6,11.3-16.2L456.9,245z"/>
<ellipse class="st0" cx="361.7" cy="97.9" rx="66.8" ry="66.8"/>
<path class="st0" d="M162.8,293.7h-49.6c-36.1,0-66.3,27.1-70.8,62.7l-6.8,57.7c-0.9,7.7,4.1,14.4,11.3,16.2
	c28.9,6.3,59.1,9.5,91.1,9.5c31.6,0,62.3-3.2,91.1-9.5c7.2-1.8,12.2-8.6,11.3-16.2l-6.8-57.7C229.1,320.3,198.9,293.7,162.8,293.7z"
	/>
<circle class="st0" cx="138" cy="209.4" r="66.8"/>
<path class="st1" d="M373.9,309.1c-1.8-5.9-9-8.1-14-4.5l-60.5,45.6c-5.9,4.5-4.5,14,2.7,16.2l17.1,5.4
	c-9.5,27.1-27.1,48.7-49.6,63.6c-2.7,1.8-1.8,6.8,1.4,7.2c42,7.2,83.4-15.8,98.3-55.9l17.6,5.4c7.2,2.3,14-4.5,11.3-11.7
	L373.9,309.1z"/>
</svg>
