<?xml version="1.0" encoding="utf-8"?>
<!-- Generator: Adobe Illustrator 23.0.0, SVG Export Plug-In . SVG Version: 6.00 Build 0)  -->
<svg version="1.1" id="Layer_1" xmlns="http://www.w3.org/2000/svg" xmlns:xlink="http://www.w3.org/1999/xlink" x="0px" y="0px"
	 viewBox="0 0 500 500" style="enable-background:new 0 0 500 500;" xml:space="preserve">
<style type="text/css">
	.st0{fill:none;stroke:#525252;stroke-width:9;stroke-miterlimit:10;}
	.st1{fill:none;stroke:#057EE6;stroke-width:9;stroke-miterlimit:10;}
</style>
<path class="st0" d="M235.6,225.5v-98.6H78c-13.1,0-23.7,10.6-23.7,23.7v51.3c0,13.1,10.6,23.7,23.7,23.7L235.6,225.5L235.6,225.5
	L235.6,225.5z"/>
<path class="st0" d="M422,126.9H264.4v98.6H422c13.1,0,23.7-10.6,23.7-23.7v-51.3C445.7,137.5,435,126.9,422,126.9z"/>
<path class="st1" d="M190.2,22.3c-6.8-3.8-14.5-5.8-22.3-5.8c-16.6,0-32,9-40.1,23.5c-12.3,22.1-4.4,50.1,17.7,62.4
	c5.5,3,16.7,7.1,50.2,7.1c18.5,0,34.8-1.3,35.5-1.3c3.7-0.3,7-2.4,8.8-5.7s1.9-7.2,0.1-10.5C235.2,82.3,209,32.8,190.2,22.3z
	 M195.8,87.4c-29.3,0-37.6-3.3-39.4-4.3c-11.4-6.4-15.5-20.8-9.1-32.2c4.2-7.5,12.1-12.2,20.7-12.2c4,0,8,1,11.5,3
	c6.9,3.8,20.8,24.3,32.9,45.4C207.3,87.3,201.6,87.4,195.8,87.4z"/>
<path class="st1" d="M304.2,109.6c33.5,0,44.7-4.1,50.2-7.1c22.1-12.3,30.1-40.3,17.7-62.4c-8.1-14.5-23.4-23.6-40.1-23.6
	c-7.8,0-15.5,2-22.3,5.8c-18.8,10.5-45,60-50,69.8c-1.7,3.3-1.6,7.2,0.1,10.5c1.8,3.2,5.1,5.3,8.8,5.7
	C269.4,108.3,285.8,109.6,304.2,109.6z M320.6,41.7c3.5-2,7.5-3,11.5-3c8.6,0,16.5,4.7,20.7,12.2c6.3,11.4,2.3,25.9-9.1,32.2
	c-1.8,1-10.1,4.3-39.4,4.3c-5.8,0-11.5-0.2-16.5-0.3C299.8,65.9,313.7,45.5,320.6,41.7z"/>
<path class="st0" d="M362.5,310.2c3.3,3.3,2,8.4-2.3,8.3l-27.2,2.9l-2.9,27.2c0.1,4.3-5,5.6-8.3,2.3l-57.4-57.4v169.3h143.9
	c8.5,0,15.3-6.9,15.3-15.3V252.8H305L362.5,310.2z"/>
<path class="st0" d="M169.9,348.6l-2.9-27.2l-27.2-2.9c-4.3,0.1-5.6-5-2.3-8.3l57.4-57.4H76.3v194.6c0,8.5,6.9,15.3,15.3,15.3h143.9
	V293.5l-57.4,57.4C174.9,354.2,169.9,352.8,169.9,348.6z"/>
</svg>
