<?xml version="1.0" encoding="utf-8"?>
<!-- Generator: Adobe Illustrator 23.0.0, SVG Export Plug-In . SVG Version: 6.00 Build 0)  -->
<svg version="1.1" id="Layer_1" xmlns="http://www.w3.org/2000/svg" xmlns:xlink="http://www.w3.org/1999/xlink" x="0px" y="0px"
	 viewBox="0 0 500 500" style="enable-background:new 0 0 500 500;" xml:space="preserve">
<style type="text/css">
	.st0{fill:none;stroke:#ffffff;stroke-width:9;stroke-miterlimit:10;}
	.st1{fill:none;stroke:#ffffff;stroke-width:9;stroke-miterlimit:10;}
</style>
<title>76 all</title>
<path class="st0" d="M368.7,359.8c16.1-25.5,8.4-59.3-17.1-75.4c-25.5-16.1-59.3-8.4-75.4,17.1c-16.1,25.5-8.4,59.3,17.1,75.4
	c17.8,11.2,40.5,11.2,58.3,0l22.8,22.8c4.7,4.7,12.4,4.7,17.1,0c4.8-4.7,4.7-12.4,0-17.1L368.7,359.8z"/>
<path class="st0" d="M327,231.9V80.1c0-11.7-9.5-21.3-21.3-21.3H179l-78.5,78.5v190.3c0,11.7,9.5,21.3,21.3,21.3H227"/>
<line class="st1" x1="133.6" y1="194.5" x2="288.7" y2="194.5"/>
<line class="st1" x1="134.6" y1="246.5" x2="289.7" y2="246.5"/>
</svg>
