<?xml version="1.0" encoding="utf-8"?>
<!-- Generator: Adobe Illustrator 23.0.0, SVG Export Plug-In . SVG Version: 6.00 Build 0)  -->
<svg version="1.1" id="Layer_1" xmlns="http://www.w3.org/2000/svg" xmlns:xlink="http://www.w3.org/1999/xlink" x="0px" y="0px"
	 viewBox="0 0 500 500" style="enable-background:new 0 0 500 500;" xml:space="preserve">
<style type="text/css">
	.st0{fill:#525252;}
	.st1{fill:#057EE6;}
	.st2{fill:#FFFFFF;}
</style>
<path class="st0" d="M451.68,71.6H48.32C39.84,71.6,33,78.44,33,86.91v250.39c0,8.48,6.84,15.32,15.32,15.32h403.36
	c8.48,0,15.32-6.84,15.32-15.32V86.91C467,78.44,460.16,71.6,451.68,71.6z M250,342.92c-7.86,0-14.19-6.38-14.19-14.19
	c0-7.81,6.33-14.19,14.19-14.19c7.86,0,14.19,6.38,14.19,14.19C264.19,336.54,257.86,342.92,250,342.92z M441.47,292.12
	c0,8.48-6.84,15.32-15.32,15.32H73.85c-8.48,0-15.32-6.84-15.32-15.32V112.44c0-8.48,6.84-15.32,15.32-15.32h352.31
	c8.48,0,15.32,6.84,15.32,15.32V292.12z"/>
<path class="st0" d="M302.08,365.13c-1.48,9.55-9.7,16.85-19.61,16.85h-64.95c-9.96,0-18.13-7.3-19.61-16.85H33
	c0,18.59,15.06,33.7,33.65,33.7H433.3c18.59,0,33.7-15.06,33.7-33.7H302.08z"/>
<path class="st1" d="M315.41,204.04v-1.79c0-15.11-12.56-27.57-27.78-27.57h-33.19v-11.54c7.15-1.79,13.48-8.88,13.48-16.9
	c0-9.8-8.07-17.77-17.92-17.77s-17.97,7.97-17.97,17.72c0,8.02,5.36,15.11,13.48,16.9v11.54h-32.27
	c-15.27,0-27.78,12.46-27.78,27.57v1.79c-11.64,1.79-19.71,11.54-19.71,23.13c0,11.54,8.07,20.47,18.84,23.13
	c0.87,14.25,12.56,25.78,27.78,25.78h75.31c15.27,0,26.91-11.54,27.78-25.78c10.77-1.79,18.84-11.54,18.84-23.13
	C335.12,215.63,327.05,205.83,315.41,204.04L315.41,204.04z M184.49,240.5c-5.36-1.79-9.85-7.1-9.85-13.33
	c0-6.23,4.49-11.54,9.85-14.25V240.5z M241.42,146.24c0-4.44,3.57-8.88,8.99-8.88c4.49,0,8.99,3.57,8.99,8.88
	c0,5.36-3.57,8.88-8.99,8.88C245,154.26,241.42,150.69,241.42,146.24L241.42,146.24z M306.42,248.52c0,10.67-8.07,18.69-18.84,18.69
	h-74.39c-10.77,0-18.84-8.02-18.84-18.69v-46.26c0-10.67,8.07-18.69,18.84-18.69h75.31c10.77,0,18.84,8.02,18.84,18.69v46.26H306.42
	L306.42,248.52z M315.41,240.5v-27.57c6.28,1.79,9.85,7.1,9.85,14.25C326.18,233.4,321.69,238.76,315.41,240.5L315.41,240.5z"/>
<path class="st2" d="M287.58,267.2h-73.42c-10.93,0-19.76-8.83-19.76-19.76v-45.39c0-10.21,8.27-18.48,18.48-18.48h76.03
	c10.21,0,18.48,8.27,18.48,18.48v45.39C307.34,258.37,298.51,267.2,287.58,267.2z"/>
<path class="st1" d="M282.73,202.26c-7.05,0-13.17,6.13-13.17,13.07c0,7,6.18,13.07,13.17,13.07c7,0,13.17-6.13,13.17-13.07
	C295.9,208.38,289.72,202.26,282.73,202.26L282.73,202.26z M282.73,219.72c-2.66,0-4.39-1.74-4.39-4.34c0-2.6,1.79-4.34,4.39-4.34
	s4.39,1.74,4.39,4.34C287.12,217.93,285.33,219.72,282.73,219.72z M218.6,202.26c-7.05,0-13.17,6.13-13.17,13.07
	c0,7,6.18,13.07,13.17,13.07s13.17-6.13,13.17-13.07C231.77,208.38,225.59,202.26,218.6,202.26L218.6,202.26z M218.6,219.72
	c-2.66,0-4.39-1.74-4.39-4.34c0-2.6,1.79-4.34,4.39-4.34s4.39,1.74,4.39,4.34C222.99,217.93,221.2,219.72,218.6,219.72z
	 M262.51,241.52h-23.74c-2.66,0-4.39,1.74-4.39,4.34c0,2.6,1.79,4.34,4.39,4.34h23.69c2.66,0,4.39-1.74,4.39-4.34
	C266.9,244.12,265.11,241.52,262.51,241.52z"/>
</svg>
