<?xml version="1.0" encoding="utf-8"?>
<!-- Generator: Adobe Illustrator 23.0.0, SVG Export Plug-In . SVG Version: 6.00 Build 0)  -->
<svg version="1.1" id="Layer_1" xmlns="http://www.w3.org/2000/svg" xmlns:xlink="http://www.w3.org/1999/xlink" x="0px" y="0px"
	 viewBox="0 0 360 360" style="enable-background:new 0 0 360 360;" xml:space="preserve">
<style type="text/css">
	.st0{fill:#525252;}
	.st1{clip-path:url(#SVGID_2_);}
	.st2{clip-path:url(#SVGID_4_);fill:none;}
	.st3{clip-path:url(#SVGID_6_);fill:none;}
	.st4{clip-path:url(#SVGID_8_);fill:#057EE6;}
	.st5{clip-path:url(#SVGID_10_);}
	.st6{clip-path:url(#SVGID_12_);fill:none;}
	.st7{clip-path:url(#SVGID_14_);fill:none;}
	.st8{clip-path:url(#SVGID_16_);fill:#057EE6;}
	.st9{clip-path:url(#SVGID_18_);}
	.st10{clip-path:url(#SVGID_20_);fill:none;}
	.st11{clip-path:url(#SVGID_22_);fill:none;}
	.st12{clip-path:url(#SVGID_24_);fill:#057EE6;}
</style>
<g>
	<path class="st0" d="M135.1,35.9l-44.8,73.5c-1.5,2.5,0.3,5.8,3.2,5.8l82,1.8c2.4,0.1,4.6,1.4,5.8,3.4l40.9,72.9
		c1.4,2.5,5,2.5,6.4,0.1l43.2-73c1.1-1.8,1.1-4,0-5.8l-41.7-74.1c-1.2-2.2-3.5-3.5-6.1-3.6L135.1,35.9z"/>
	<g>
		<g>
			<g>
				<defs>
					<path id="SVGID_1_" d="M135.1,35.9l-44.8,73.5c-1.5,2.5,0.3,5.8,3.2,5.8l82,1.8c2.4,0.1,4.6,1.4,5.8,3.4l40.9,72.9
						c1.4,2.5,5,2.5,6.4,0.1l43.2-73c1.1-1.8,1.1-4,0-5.8l-41.7-74.1c-1.2-2.2-3.5-3.5-6.1-3.6L135.1,35.9z"/>
				</defs>
				<clipPath id="SVGID_2_">
					<use xlink:href="#SVGID_1_"  style="overflow:visible;"/>
				</clipPath>
				<g class="st1">
					<g>
						<g>
							<defs>
								<path id="SVGID_3_" d="M135.1,35.9l-44.8,73.5c-1.5,2.5,0.3,5.8,3.2,5.8l82,1.8c2.4,0.1,4.6,1.4,5.8,3.4l40.9,72.9
									c1.4,2.5,5,2.5,6.4,0.1l43.2-73c1.1-1.8,1.1-4,0-5.8l-41.7-74.1c-1.2-2.2-3.5-3.5-6.1-3.6L135.1,35.9z"/>
							</defs>
							<clipPath id="SVGID_4_">
								<use xlink:href="#SVGID_3_"  style="overflow:visible;"/>
							</clipPath>
							<path class="st2" d="M135.1,35.9l-44.8,73.5c-1.5,2.5,0.3,5.8,3.2,5.8l82,1.8c2.4,0.1,4.6,1.4,5.8,3.4l40.9,72.9
								c1.4,2.5,5,2.5,6.4,0.1l43.2-73c1.1-1.8,1.1-4,0-5.8l-41.7-74.1c-1.2-2.2-3.5-3.5-6.1-3.6L135.1,35.9z"/>
						</g>
					</g>
				</g>
			</g>
		</g>
		<g>
			<g>
				<defs>
					<path id="SVGID_5_" d="M135.1,35.9l-44.8,73.5c-1.5,2.5,0.3,5.8,3.2,5.8l82,1.8c2.4,0.1,4.6,1.4,5.8,3.4l40.9,72.9
						c1.4,2.5,5,2.5,6.4,0.1l43.2-73c1.1-1.8,1.1-4,0-5.8l-41.7-74.1c-1.2-2.2-3.5-3.5-6.1-3.6L135.1,35.9z"/>
				</defs>
				<clipPath id="SVGID_6_">
					<use xlink:href="#SVGID_5_"  style="overflow:visible;"/>
				</clipPath>
				<path class="st3" d="M135.1,35.9l-44.8,73.5c-1.5,2.5,0.3,5.8,3.2,5.8l82,1.8c2.4,0.1,4.6,1.4,5.8,3.4l40.9,72.9
					c1.4,2.5,5,2.5,6.4,0.1l43.2-73c1.1-1.8,1.1-4,0-5.8l-41.7-74.1c-1.2-2.2-3.5-3.5-6.1-3.6L135.1,35.9z"/>
			</g>
		</g>
		<g>
			<g>
				<defs>
					<path id="SVGID_7_" d="M135.1,35.9l-44.8,73.5c-1.5,2.5,0.3,5.8,3.2,5.8l82,1.8c2.4,0.1,4.6,1.4,5.8,3.4l40.9,72.9
						c1.4,2.5,5,2.5,6.4,0.1l43.2-73c1.1-1.8,1.1-4,0-5.8l-41.7-74.1c-1.2-2.2-3.5-3.5-6.1-3.6L135.1,35.9z"/>
				</defs>
				<clipPath id="SVGID_8_">
					<use xlink:href="#SVGID_7_"  style="overflow:visible;"/>
				</clipPath>
				<polygon class="st4" points="228.6,36.6 179.8,117.9 86.9,115.9 135.6,34.9 				"/>
			</g>
		</g>
	</g>
</g>
<g>
	<path class="st0" d="M60,324.5l86.1-0.1c2.9,0,4.8-3.3,3.3-5.8l-41.2-70.9c-1.2-2.1-1.2-4.7-0.1-6.7l40.9-72.9
		c1.4-2.5-0.5-5.6-3.3-5.5l-84.8,1.2c-2.1,0-4,1.1-4.9,3L14.5,241c-1.3,2.2-1.2,4.8,0.1,7.1L60,324.5z"/>
	<g>
		<g>
			<g>
				<defs>
					<path id="SVGID_9_" d="M60,324.5l86.1-0.1c2.9,0,4.8-3.3,3.3-5.8l-41.2-70.9c-1.2-2.1-1.2-4.7-0.1-6.7l40.9-72.9
						c1.4-2.5-0.5-5.6-3.3-5.5l-84.8,1.2c-2.1,0-4,1.1-4.9,3L14.5,241c-1.3,2.2-1.2,4.8,0.1,7.1L60,324.5z"/>
				</defs>
				<clipPath id="SVGID_10_">
					<use xlink:href="#SVGID_9_"  style="overflow:visible;"/>
				</clipPath>
				<g class="st5">
					<g>
						<g>
							<defs>
								<path id="SVGID_11_" d="M60,324.5l86.1-0.1c2.9,0,4.8-3.3,3.3-5.8l-41.2-70.9c-1.2-2.1-1.2-4.7-0.1-6.7l40.9-72.9
									c1.4-2.5-0.5-5.6-3.3-5.5l-84.8,1.2c-2.1,0-4,1.1-4.9,3L14.5,241c-1.3,2.2-1.2,4.8,0.1,7.1L60,324.5z"/>
							</defs>
							<clipPath id="SVGID_12_">
								<use xlink:href="#SVGID_11_"  style="overflow:visible;"/>
							</clipPath>
							<path class="st6" d="M60,324.5l86.1-0.1c2.9,0,4.8-3.3,3.3-5.8l-41.2-70.9c-1.2-2.1-1.2-4.7-0.1-6.7l40.9-72.9
								c1.4-2.5-0.5-5.6-3.3-5.5l-84.8,1.2c-2.1,0-4,1.1-4.9,3L14.5,241c-1.3,2.2-1.2,4.8,0.1,7.1L60,324.5z"/>
						</g>
					</g>
				</g>
			</g>
		</g>
		<g>
			<g>
				<defs>
					<path id="SVGID_13_" d="M60,324.5l86.1-0.1c2.9,0,4.8-3.3,3.3-5.8l-41.2-70.9c-1.2-2.1-1.2-4.7-0.1-6.7l40.9-72.9
						c1.4-2.5-0.5-5.6-3.3-5.5l-84.8,1.2c-2.1,0-4,1.1-4.9,3L14.5,241c-1.3,2.2-1.2,4.8,0.1,7.1L60,324.5z"/>
				</defs>
				<clipPath id="SVGID_14_">
					<use xlink:href="#SVGID_13_"  style="overflow:visible;"/>
				</clipPath>
				<path class="st7" d="M60,324.5l86.1-0.1c2.9,0,4.8-3.3,3.3-5.8l-41.2-70.9c-1.2-2.1-1.2-4.7-0.1-6.7l40.9-72.9
					c1.4-2.5-0.5-5.6-3.3-5.5l-84.8,1.2c-2.1,0-4,1.1-4.9,3L14.5,241c-1.3,2.2-1.2,4.8,0.1,7.1L60,324.5z"/>
			</g>
		</g>
		<g>
			<g>
				<defs>
					<path id="SVGID_15_" d="M60,324.5l86.1-0.1c2.9,0,4.8-3.3,3.3-5.8l-41.2-70.9c-1.2-2.1-1.2-4.7-0.1-6.7l40.9-72.9
						c1.4-2.5-0.5-5.6-3.3-5.5l-84.8,1.2c-2.1,0-4,1.1-4.9,3L14.5,241c-1.3,2.2-1.2,4.8,0.1,7.1L60,324.5z"/>
				</defs>
				<clipPath id="SVGID_16_">
					<use xlink:href="#SVGID_15_"  style="overflow:visible;"/>
				</clipPath>
				<polygon class="st8" points="11.8,244.4 106.6,243.6 153.4,323.9 58.9,324.6 				"/>
			</g>
		</g>
	</g>
</g>
<g>
	<path class="st0" d="M347.9,245L306,169.8c-1.4-2.5-5.2-2.6-6.6-0.1l-42,70.5c-1.3,2-3.5,3.3-5.8,3.4l-83.6-0.3
		c-2.9,0-4.6,3.1-3.2,5.5l42.2,73.6c1,1.8,2.9,2.9,5,2.9l85,0.2c2.5,0,4.8-1.3,6.1-3.5L347.9,245z"/>
	<g>
		<g>
			<g>
				<defs>
					<path id="SVGID_17_" d="M347.9,245L306,169.8c-1.4-2.5-5.2-2.6-6.6-0.1l-42,70.5c-1.3,2-3.5,3.3-5.8,3.4l-83.6-0.3
						c-2.9,0-4.6,3.1-3.2,5.5l42.2,73.6c1,1.8,2.9,2.9,5,2.9l85,0.2c2.5,0,4.8-1.3,6.1-3.5L347.9,245z"/>
				</defs>
				<clipPath id="SVGID_18_">
					<use xlink:href="#SVGID_17_"  style="overflow:visible;"/>
				</clipPath>
				<g class="st9">
					<g>
						<g>
							<defs>
								<path id="SVGID_19_" d="M347.9,245L306,169.8c-1.4-2.5-5.2-2.6-6.6-0.1l-42,70.5c-1.3,2-3.5,3.3-5.8,3.4l-83.6-0.3
									c-2.9,0-4.6,3.1-3.2,5.5l42.2,73.6c1,1.8,2.9,2.9,5,2.9l85,0.2c2.5,0,4.8-1.3,6.1-3.5L347.9,245z"/>
							</defs>
							<clipPath id="SVGID_20_">
								<use xlink:href="#SVGID_19_"  style="overflow:visible;"/>
							</clipPath>
							<path class="st10" d="M347.9,245L306,169.8c-1.4-2.5-5.2-2.6-6.6-0.1l-42,70.5c-1.3,2-3.5,3.3-5.8,3.4l-83.6-0.3
								c-2.9,0-4.6,3.1-3.2,5.5l42.2,73.6c1,1.8,2.9,2.9,5,2.9l85,0.2c2.5,0,4.8-1.3,6.1-3.5L347.9,245z"/>
						</g>
					</g>
				</g>
			</g>
		</g>
		<g>
			<g>
				<defs>
					<path id="SVGID_21_" d="M347.9,245L306,169.8c-1.4-2.5-5.2-2.6-6.6-0.1l-42,70.5c-1.3,2-3.5,3.3-5.8,3.4l-83.6-0.3
						c-2.9,0-4.6,3.1-3.2,5.5l42.2,73.6c1,1.8,2.9,2.9,5,2.9l85,0.2c2.5,0,4.8-1.3,6.1-3.5L347.9,245z"/>
				</defs>
				<clipPath id="SVGID_22_">
					<use xlink:href="#SVGID_21_"  style="overflow:visible;"/>
				</clipPath>
				<path class="st11" d="M347.9,245L306,169.8c-1.4-2.5-5.2-2.6-6.6-0.1l-42,70.5c-1.3,2-3.5,3.3-5.8,3.4l-83.6-0.3
					c-2.9,0-4.6,3.1-3.2,5.5l42.2,73.6c1,1.8,2.9,2.9,5,2.9l85,0.2c2.5,0,4.8-1.3,6.1-3.5L347.9,245z"/>
			</g>
		</g>
		<g>
			<g>
				<defs>
					<path id="SVGID_23_" d="M347.9,245L306,169.8c-1.4-2.5-5.2-2.6-6.6-0.1l-42,70.5c-1.3,2-3.5,3.3-5.8,3.4l-83.6-0.3
						c-2.9,0-4.6,3.1-3.2,5.5l42.2,73.6c1,1.8,2.9,2.9,5,2.9l85,0.2c2.5,0,4.8-1.3,6.1-3.5L347.9,245z"/>
				</defs>
				<clipPath id="SVGID_24_">
					<use xlink:href="#SVGID_23_"  style="overflow:visible;"/>
				</clipPath>
				<polygon class="st12" points="301.2,326 254.5,243.5 302,163.6 348.5,245.9 				"/>
			</g>
		</g>
	</g>
</g>
</svg>
