<?xml version="1.0" encoding="utf-8"?>
<!-- Generator: Adobe Illustrator 23.0.0, SVG Export Plug-In . SVG Version: 6.00 Build 0)  -->
<svg version="1.1" id="Layer_1" xmlns="http://www.w3.org/2000/svg" xmlns:xlink="http://www.w3.org/1999/xlink" x="0px" y="0px"
	 viewBox="0 0 360 360" style="enable-background:new 0 0 360 360;" xml:space="preserve">
<style type="text/css">
	.st0{fill:#057EE6;}
	.st1{fill:#525252;}
</style>
<path class="st0" d="M195.4,106.8l-29.3-29.3H71.9V129l22.6-22.2C94.5,106.8,195.7,106.4,195.4,106.8z"/>
<polygon class="st1" points="96.5,111.4 137.9,111.4 67.2,181.3 67.2,215.5 29.2,177.4 "/>
<polygon class="st0" points="101.2,153.8 101.2,255.4 124,278 71.2,278 71.2,183 "/>
<polygon class="st1" points="104,252.9 104,211.3 174.7,282 209.1,282 171.1,320 "/>
<polygon class="st0" points="147.4,249 248,249 272.2,224.8 272.2,278.3 176.2,278.3 "/>
<path class="st1" d="M204.6,244.4l70.2-70.2V139l38.6,38.6l-66.5,66.5C246.9,244.1,204.1,244.4,204.6,244.4z"/>
<polygon class="st0" points="218.6,77.5 271.6,77.5 271.6,172.4 242.9,201.3 242.9,101.1 "/>
<path class="st1" d="M171.4,35.5l66.9,66.9v42.9l-71-71h-33.6C133.6,74.3,171.7,35.1,171.4,35.5z"/>
</svg>
