<?xml version="1.0" encoding="utf-8"?>
<!-- Generator: Adobe Illustrator 23.0.0, SVG Export Plug-In . SVG Version: 6.00 Build 0)  -->
<svg version="1.1" id="Layer_1" xmlns="http://www.w3.org/2000/svg" xmlns:xlink="http://www.w3.org/1999/xlink" x="0px" y="0px"
	 viewBox="0 0 360 360" style="enable-background:new 0 0 360 360;" xml:space="preserve">
<style type="text/css">
	.st0{fill:#057EE6;}
	.st1{fill:#515151;}
</style>
<path class="st0" d="M180.5,247.9c0,0,124.3,13.2,112.4-138.8l35-1.3C328,107.7,315.4,278.9,180.5,247.9z"/>
<path class="st1" d="M144.5,239.5c0,0,98.3,77.4,169.1-57.8l30.4,17.5C344,199.3,242.2,337.6,144.5,239.5z"/>
<path class="st1" d="M117.3,211.4c0,0,40.1,118.1,172.8,43.7l15.8,31.2C305.9,286.2,145.6,346.5,117.3,211.4z"/>
<path class="st0" d="M109,174.2c0,0-30.8,121.1,121.4,131.1l-3.7,34.8C226.9,340.1,59.1,303.3,109,174.2z"/>
<path class="st1" d="M121.9,139.4c0,0-90.2,86.1,33.3,175.1L133.6,342C133.6,342,11.2,222,121.9,139.4z"/>
<path class="st1" d="M154.7,116.2c0,0-123.2,21.5-70,164.4l-33.3,10.9C51.4,291.5,16.5,123.3,154.7,116.2z"/>
<path class="st1" d="M191.2,113.2c0,0-115.3-48.3-147.5,100.8l-34-8.8C9.6,205.2,70.9,44.7,191.2,113.2z"/>
<path class="st0" d="M224.8,131.3c0,0-71.1-102.9-178.6,5.4L22.4,111C22.4,111.1,160.3,8.8,224.8,131.3z"/>
<path class="st1" d="M242.4,164.9c0,0-3.7-125-152.8-92.6l-6-34.6C83.6,37.7,255.1,27.1,242.4,164.9z"/>
<path class="st1" d="M241.3,201.5c0,0,62.3-108.4-81.7-158.9L172.5,10C172.5,10,324.1,90.7,241.3,201.5z"/>
<path class="st1" d="M219,233.3c0,0,110.7-58.1,16.3-177.9l28.4-20.6C263.7,34.8,348.5,184.2,219,233.3z"/>
</svg>
