<?xml version="1.0" encoding="utf-8"?>
<!-- Generator: Adobe Illustrator 23.0.0, SVG Export Plug-In . SVG Version: 6.00 Build 0)  -->
<svg version="1.1" id="Layer_1" xmlns="http://www.w3.org/2000/svg" xmlns:xlink="http://www.w3.org/1999/xlink" x="0px" y="0px"
	 viewBox="0 0 500 500" style="enable-background:new 0 0 500 500;" xml:space="preserve">
<style type="text/css">
	.st0{fill:#525252;}
	.st1{fill:#057EE6;}
</style>
<path class="st0" d="M450.95,359.33c-1.57-15.08-116.71-100.95-134.49-81.6c-6.34,6.91-26.51,26.7-28.14,61.56
	c-1.26,25.5-165.78-133.68-137.63-137.63c34.55-4.84,54.65-21.8,61.56-28.14c19.35-17.78-66.52-132.92-81.54-134.49
	c-15.08-1.57-60.12,33.17-67.28,48.24c-7.22,15.08-21.86,69.98-9.86,102.14c11.06,29.65,68.28,108.55,104.4,144.67
	s113.01,91.34,142.6,102.39c32.16,12,87.13-2.64,102.14-9.86C417.78,419.38,452.52,374.34,450.95,359.33z"/>
<path class="st1" d="M342.27,224.96c0-21.42-8.61-40.64-22.61-54.65l0,0c-14.07-14.01-33.29-22.61-54.65-22.61l0,0
	c-7.73,0-14.01-6.22-14.01-14.01l0,0c0-7.73,6.28-14.01,14.01-14.01l0,0c58.11,0,105.22,47.11,105.28,105.28l0,0
	c0,7.73-6.28,14.01-14.01,14.01l0,0C348.56,238.97,342.27,232.69,342.27,224.96L342.27,224.96z"/>
<path class="st1" d="M399.56,224.96c0-37.25-15.01-70.73-39.45-95.17l0,0c-24.44-24.37-57.92-39.39-95.17-39.39l0,0l0,0
	c-11.12,0-20.1-8.98-20.1-20.1l0,0c0-11.12,8.98-20.1,20.1-20.1l0,0c96.49,0,174.76,78.21,174.76,174.76l0,0
	c0,11.12-8.98,20.1-20.1,20.1l0,0C408.55,245.07,399.56,236.08,399.56,224.96L399.56,224.96z"/>
</svg>
