<?xml version="1.0" encoding="utf-8"?>
<!-- Generator: Adobe Illustrator 23.0.0, SVG Export Plug-In . SVG Version: 6.00 Build 0)  -->
<svg version="1.1" id="Layer_1" xmlns="http://www.w3.org/2000/svg" xmlns:xlink="http://www.w3.org/1999/xlink" x="0px" y="0px"
	 viewBox="0 0 500 500" style="enable-background:new 0 0 500 500;" xml:space="preserve">
<style type="text/css">
	.st0{fill:#525252;}
	.st1{fill:#057EE6;}
	.st2{fill:#FFFFFF;}
</style>
<path class="st0" d="M342.09,437.59H157.43c-6.75,0-12.05-5.3-12.05-12.05c0-6.75,5.3-12.05,12.05-12.05h-1.45
	c21.21-2.89,32.79-11.09,39.05-19.77h110.41c6.27,8.68,17.36,17.36,39.05,19.77h-1.93c6.75,0,12.05,5.3,12.05,12.05
	C354.14,432.29,348.84,437.59,342.09,437.59z"/>
<path class="st0" d="M438.52,373.95H305.93h-7.71h-96.43h-12.54H61.48c-14.95,0-27-12.05-27.48-26.52l0,0v-0.48v-0.48v-2.89v-0.48
	v-41.95v-0.48V68.75c0-17.36,13.98-31.34,31.34-31.34h369.32c17.36,0,31.34,13.98,31.34,31.34v226.61l0,0v52.07l0,0
	C465.52,361.89,453.46,373.95,438.52,373.95z"/>
<path class="st1" d="M275.07,338.75c0-3.86-2.89-6.75-6.75-6.75h-36.16c-3.86,0-6.75,2.89-6.75,6.75v4.82
	c0,3.86,2.89,6.75,6.75,6.75h36.16c3.86,0,6.75-2.89,6.75-6.75V338.75z"/>
<path class="st2" d="M440.45,300.66L440.45,300.66V68.75c0-2.89-2.41-5.3-5.3-5.3H65.34c-2.89,0-5.3,2.41-5.3,5.3v231.91
	c0,2.89,2.41,5.3,5.3,5.3h369.32C437.55,306.45,440.45,304.04,440.45,300.66z"/>
<path class="st1" d="M196.48,164.21c5.79-0.48,11.57,1.45,15.91,5.79l8.2,8.2c0.48,0.48,0.96,0.48,0.96,0.96l22.18-22.18l-8.2-8.2
	c-4.34-4.34-6.27-10.61-5.79-16.88c0.96-10.61-2.41-21.21-10.12-29.41c-8.2-8.2-18.8-11.57-29.41-10.13
	c-3.86,0.48-5.79,5.3-2.89,8.2l10.61,10.61c4.34,4.34,4.34,11.57,0,15.91l-6.75,6.75c-4.34,4.34-11.57,4.34-15.91,0l-9.64-9.64
	c-2.89-2.89-8.2-0.96-8.2,3.38c-0.48,9.64,3.38,19.29,10.61,26.52C176.23,161.32,186.36,164.7,196.48,164.21z"/>
<path class="st1" d="M303.04,206.16c-5.79,0.48-11.57-1.45-15.91-5.79l-9.64-9.64l-22.18,22.18c0.48,0.48,0.96,0.96,0.96,1.45
	l7.23,7.23c4.34,4.34,6.27,10.61,5.79,16.88c-0.96,10.61,2.41,21.21,10.13,29.41c8.2,8.2,18.8,11.57,29.41,10.13
	c3.86-0.48,5.79-5.3,2.89-8.2l-10.61-10.61c-4.34-4.34-4.34-11.57,0-15.91l6.75-6.75c4.34-4.34,11.57-4.34,15.91,0l9.64,9.64
	c2.89,2.89,8.2,0.96,8.2-3.38c0.48-9.64-3.37-19.29-10.61-26.52C323.29,208.57,313.16,205.2,303.04,206.16z"/>
<path class="st1" d="M294.36,151.68h22.66l22.66-44.84l-11.09-11.09l-44.84,22.66v22.66l-62.2,60.75l-11.09-11.09l-44.36,44.36
	c-9.16,9.16-9.16,24.11,0,33.27c9.16,9.16,24.11,9.16,33.27,0L243.73,224l-11.09-11.09L294.36,151.68z"/>
</svg>
