<?xml version="1.0" encoding="utf-8"?>
<!-- Generator: Adobe Illustrator 23.0.0, SVG Export Plug-In . SVG Version: 6.00 Build 0)  -->
<svg version="1.1" id="Layer_1" xmlns="http://www.w3.org/2000/svg" xmlns:xlink="http://www.w3.org/1999/xlink" x="0px" y="0px"
	 viewBox="0 0 500 500" style="enable-background:new 0 0 500 500;" xml:space="preserve">
<style type="text/css">
	.st0{fill:#525252;}
	.st1{fill:#FFFFFF;}
	.st2{fill:#057EE6;}
</style>
<path class="st0" d="M455.2,457.43H44.8c-11.91,0-21.56-9.65-21.56-21.56V76.53c0-11.91,9.65-21.56,21.56-21.56H455.2
	c11.91,0,21.56,9.65,21.56,21.56V435.9C476.76,447.78,467.1,457.43,455.2,457.43z"/>
<rect x="70.37" y="102.09" class="st1" width="357.33" height="314.11"/>
<g>
	<path class="st2" d="M268.45,350.03c0,8.68,1.6,14.33,4.76,16.98c3.2,2.65,7.42,4.38,12.76,5.19c5.31,0.78,9.08,1.91,11.27,3.35
		c2.21,1.45,3.32,4.4,3.32,8.86c0,5.91-5.16,8.86-15.43,8.86c-4.44,0-11.09-0.54-19.96-1.6c-8.86-1.06-15.43-1.6-19.69-1.6
		c-4.26,0-10.47,0.7-18.63,2.11c-8.18,1.42-14.29,2.11-18.36,2.11s-7.6-1.18-10.53-3.5c-2.93-2.33-4.4-5.37-4.4-9.14
		c0-2.33,0.78-4.34,2.39-6.07c1.6-1.69,5.67-3.07,12.22-4.14c6.55-1.06,11.09-3.17,13.66-6.37c2.57-3.17,3.86-10.85,3.86-23.07
		v-89.56c0-7.6-1.6-12.64-4.76-15.11c-3.2-2.47-7.87-4.34-14.08-5.58c-6.21-1.24-10.04-2.83-11.55-4.82
		c-1.51-1.97-2.27-4.4-2.27-7.27c0-3.23,1.3-5.85,3.86-7.93c2.56-2.09,5.64-3.11,9.2-3.11c3.01,0,7.33,0.66,12.9,1.99
		s9.71,1.99,12.4,1.99c3.01,0,7.63-0.48,13.84-1.45c6.21-0.96,10.83-1.45,13.84-1.45c6.57,0,9.86,5.49,9.86,16.46
		c0,1.78-0.1,4.1-0.28,7.03c-0.18,2.93-0.28,4.92-0.28,5.97v110.82h0.08V350.03z M246.8,119.61c8.12,0,15.11,2.95,21.02,8.86
		c5.91,5.91,8.86,12.9,8.86,21.02c0,7.21-2.89,13.32-8.72,18.36c-5.82,5.04-12.7,7.54-20.6,7.54c-7.93,0-14.75-2.77-20.48-8.32
		c-5.73-5.55-8.6-12.18-8.6-19.96c0-7.39,2.87-13.81,8.6-19.29C232.56,122.36,239.23,119.61,246.8,119.61z"/>
</g>
</svg>
