<?xml version="1.0"?>
<svg xmlns="http://www.w3.org/2000/svg" xmlns:xlink="http://www.w3.org/1999/xlink" version="1.1" id="Capa_1" x="0px" y="0px" viewBox="0 0 57 57" style="enable-background:new 0 0 57 57;" xml:space="preserve" width="512px" height="512px" class=""><g><path style="fill:none;stroke:#424A60;stroke-width:4;stroke-linecap:round;stroke-miterlimit:10;" d="M16.5,28V12.601  C16.5,6.77,21.675,2,28,2h0c6.325,0,11.5,4.77,11.5,10.601V28H16.5z"/><rect x="7.5" y="25" style="fill:#057EE6" width="42" height="32" data-original="#EBBA16" class="" data-old_color="#EBBA16"/><path style="fill:#424A60;" d="M28.5,45L28.5,45c-1.65,0-3-1.35-3-3v-6c0-1.65,1.35-3,3-3h0c1.65,0,3,1.35,3,3v6  C31.5,43.65,30.15,45,28.5,45z" data-original="#424A60" class=""/><rect x="7.5" y="51" style="fill:#38454F" width="42" height="6" data-original="#38454F" class="" data-old_color="#38454F"/></g> </svg>
