<?xml version="1.0" encoding="utf-8"?>
<!-- Generator: Adobe Illustrator 23.0.0, SVG Export Plug-In . SVG Version: 6.00 Build 0)  -->
<svg version="1.1" id="Layer_1" xmlns="http://www.w3.org/2000/svg" xmlns:xlink="http://www.w3.org/1999/xlink" x="0px" y="0px"
	 viewBox="0 0 500 500" style="enable-background:new 0 0 500 500;" xml:space="preserve">
<style type="text/css">
	.st0{fill:#057EE6;}
	.st1{fill:#525252;}
</style>
<g>
	<path class="st0" d="M374.04,215.91H126.83c-9.52,0-17.22-7.72-17.22-17.22l0,0c0-9.52,7.72-17.22,17.22-17.22h247.21
		c9.52,0,17.22,7.72,17.22,17.22l0,0C391.26,208.2,383.56,215.91,374.04,215.91z"/>
	<path class="st1" d="M429.04,150.45H74.41c-9.52,0-17.22-7.72-17.22-17.22l0,0c0-9.52,7.72-17.22,17.22-17.22h354.63
		c9.52,0,17.22,7.72,17.22,17.22l0,0C446.27,142.73,438.56,150.45,429.04,150.45z"/>
	<path class="st1" d="M333.56,281.37H173.34c-9.52,0-17.22-7.72-17.22-17.22l0,0c0-9.52,7.72-17.22,17.22-17.22h160.21
		c9.52,0,17.22,7.72,17.22,17.22l0,0C350.78,273.66,343.07,281.37,333.56,281.37z"/>
	<path class="st0" d="M264.65,346.84h-25.84c-9.52,0-17.22-7.72-17.22-17.22l0,0c0-9.52,7.72-17.22,17.22-17.22h25.84
		c9.52,0,17.22,7.72,17.22,17.22l0,0C281.87,339.12,274.16,346.84,264.65,346.84z"/>
</g>
</svg>
