<?xml version="1.0" encoding="utf-8"?>
<!-- Generator: Adobe Illustrator 23.0.0, SVG Export Plug-In . SVG Version: 6.00 Build 0)  -->
<svg version="1.1" id="Layer_1" xmlns="http://www.w3.org/2000/svg" xmlns:xlink="http://www.w3.org/1999/xlink" x="0px" y="0px"
	 viewBox="0 0 360 360" style="enable-background:new 0 0 360 360;" xml:space="preserve">
<style type="text/css">
	.st0{fill:#057EE6;}
	.st1{fill:#515151;}
</style>
<path class="st0" d="M256,67.5c0,0,42.6,11.9,65.2,38.9c0,0,23.7,80.4-76.9,120.5c0,0-22.9,10.2-48.2,5.5
	C196.1,232.4,305.5,196.8,256,67.5z"/>
<path class="st1" d="M315.2,189.3c0,0,10.7,43-1.9,75.8c0,0-58.3,60-142.8-7.9c0,0-20-14.9-28.5-39.3
	C142.1,218,226.7,295.9,315.2,189.3z"/>
<path class="st0" d="M240.8,301.9c0,0-31.5,31.1-66.1,37.1c0,0-81.5-19.4-66.4-126.6c0,0,2.5-24.8,19.2-44.6
	C127.5,167.7,104,280.3,240.8,301.9z"/>
<path class="st1" d="M105.1,292.9c0,0-42.6-12.2-64.8-39.4c0,0-23-80.5,78-119.8c0,0,22.9-9.9,48.3-5
	C166.5,128.4,56.8,162.9,105.1,292.9z"/>
<path class="st1" d="M121.4,57.5c0,0,32.1-30.5,66.8-35.8c0,0,81.1,21,63.7,127.9c0,0-3,24.8-20.1,44.2
	C231.8,193.7,257.7,81.7,121.4,57.5z"/>
<path class="st0" d="M44.5,169.6c0,0-10.7-43,1.9-75.8c0,0,58.3-60,142.8,7.9c0,0,20,14.9,28.4,39.3
	C217.6,141.1,133,63.3,44.5,169.6z"/>
</svg>
