<?xml version="1.0" encoding="utf-8"?>
<!-- Generator: Adobe Illustrator 23.0.0, SVG Export Plug-In . SVG Version: 6.00 Build 0)  -->
<svg version="1.1" id="Layer_1" xmlns="http://www.w3.org/2000/svg" xmlns:xlink="http://www.w3.org/1999/xlink" x="0px" y="0px"
	 viewBox="0 0 360 360" style="enable-background:new 0 0 360 360;" xml:space="preserve">
<style type="text/css">
	.st0{fill:#525252;}
	.st1{fill:#057EE6;}
</style>
<g>
	<polygon class="st0" points="187.7,65.8 187.7,150.6 141.7,39.1 	"/>
	<polygon class="st0" points="190,65.8 190,150.4 236.9,39.1 	"/>
	<polygon class="st1" points="141.7,35.6 189.6,16 236.1,35.6 189.2,62.8 	"/>
	<polygon class="st0" points="268,98.5 208.1,158.6 254.3,47.1 	"/>
	<polygon class="st0" points="269.5,100.1 209.7,160 321.7,114.5 	"/>
	<polygon class="st1" points="256.8,44.5 304.6,64.7 323.5,111.5 271.2,97.4 	"/>
	<polygon class="st0" points="110.1,97.6 170,157.5 123.8,46.1 	"/>
	<polygon class="st0" points="108.4,99.2 168.4,159.1 56.4,113.5 	"/>
	<polygon class="st1" points="121.3,43.5 73.5,63.7 54.6,110.5 107,96.6 	"/>
	<polygon class="st0" points="187.4,290.1 187.4,205.3 141.2,316.9 	"/>
	<polygon class="st0" points="189.6,290.1 189.6,205.5 236.7,316.9 	"/>
	<polygon class="st1" points="141.2,320.4 189.4,339.9 235.9,320.3 188.9,293.2 	"/>
	<polygon class="st0" points="268,259.3 208.1,199.3 254.3,310.7 	"/>
	<polygon class="st0" points="269.5,257.7 209.7,197.9 321.7,243.3 	"/>
	<polygon class="st1" points="256.8,313.3 304.6,293.2 323.5,246.3 271.2,260.4 	"/>
	<polygon class="st0" points="109.7,258.3 169.8,198.4 123.5,309.8 	"/>
	<polygon class="st0" points="108.2,256.8 168.1,197 56.1,242.4 	"/>
	<polygon class="st1" points="121,312.4 73.2,292.3 54.3,245.3 106.6,259.5 	"/>
	<polygon class="st0" points="76.2,177 161,176.9 49.4,130.9 	"/>
	<polygon class="st0" points="76.2,179.2 160.9,179.2 49.7,226.2 	"/>
	<polygon class="st1" points="45.8,130.9 26.3,179 46.1,225.4 73.1,178.4 	"/>
	<polygon class="st0" points="301.9,177.4 217.1,177.1 328.5,131.2 	"/>
	<polygon class="st0" points="301.9,179.6 217.2,179.3 328.4,226.6 	"/>
	<polygon class="st1" points="332.2,131.2 351.6,179.3 331.9,225.8 304.7,178.7 	"/>
</g>
</svg>
