<?xml version="1.0" encoding="utf-8"?>
<!-- Generator: Adobe Illustrator 23.0.0, SVG Export Plug-In . SVG Version: 6.00 Build 0)  -->
<svg version="1.1" id="Capa_1" xmlns="http://www.w3.org/2000/svg" xmlns:xlink="http://www.w3.org/1999/xlink" x="0px" y="0px"
	 viewBox="0 0 500 500" style="enable-background:new 0 0 500 500;" xml:space="preserve">
<style type="text/css">
	.st0{fill:#057EE6;}
	.st1{fill:#525252;}
</style>
<path class="st0" d="M250,245.23c48.47,0,87.77-47.74,87.77-106.62C337.77,79.74,324.87,32,250,32s-87.77,47.74-87.77,106.62
	C162.23,197.49,201.52,245.23,250,245.23z"/>
<path d="M84.21,408.02C84.2,404.43,84.17,407.01,84.21,408.02L84.21,408.02z"/>
<path d="M415.78,410.82C415.83,409.85,415.8,404.01,415.78,410.82L415.78,410.82z"/>
<path class="st1" d="M415.59,403.72c-1.62-102.57-15.02-131.8-117.53-150.31c0,0-14.43,18.39-48.06,18.39s-48.07-18.39-48.07-18.39
	c-101.39,18.3-115.6,47.1-117.47,146.97c-0.15,8.16-0.22,8.58-0.25,7.64c0.01,1.77,0.01,5.06,0.01,10.78
	c0,0,24.4,49.21,165.78,49.21s165.78-49.21,165.78-49.21c0-3.67,0-6.23,0.01-7.97C415.76,411.42,415.71,410.27,415.59,403.72z"/>
</svg>
