<?xml version="1.0" encoding="utf-8"?>
<!-- Generator: Adobe Illustrator 23.0.0, SVG Export Plug-In . SVG Version: 6.00 Build 0)  -->
<svg version="1.1" id="Layer_1" xmlns="http://www.w3.org/2000/svg" xmlns:xlink="http://www.w3.org/1999/xlink" x="0px" y="0px"
	 viewBox="0 0 500 500" style="enable-background:new 0 0 500 500;" xml:space="preserve">
<style type="text/css">
	.st0{fill:#525252;}
	.st1{fill:#057EE6;}
</style>
<path class="st0" d="M456.87,245.01c-4.51-36.09-34.73-62.7-70.82-62.7h-49.62c-35.64,0-66.31,27.07-70.37,62.7l-6.77,57.74
	c-0.9,7.67,3.61,14.43,11.28,16.24c6.77,1.35,13.53,2.71,20.75,3.61l52.78-39.7c6.32-4.51,13.53-7.22,21.65-7.22
	c15.34,0,28.87,9.92,34.28,24.36l8.57,25.71c15.34-1.8,30.22-3.61,44.66-6.77c7.22-1.8,12.18-8.57,11.28-16.24L456.87,245.01z"/>
<ellipse class="st0" cx="361.69" cy="97.95" rx="66.76" ry="66.76"/>
<path class="st0" d="M162.76,293.72h-49.62c-36.09,0-66.31,27.07-70.82,62.7l-6.77,57.74c-0.9,7.67,4.06,14.43,11.28,16.24
	c28.87,6.32,59.09,9.47,91.12,9.47c31.58,0,62.25-3.16,91.12-9.47c7.22-1.8,12.18-8.57,11.28-16.24l-6.77-57.74
	C229.07,320.34,198.85,293.72,162.76,293.72z"/>
<circle class="st0" cx="137.96" cy="209.37" r="66.76"/>
<path class="st1" d="M373.87,309.06c-1.8-5.86-9.02-8.12-13.98-4.51l-60.45,45.56c-5.86,4.51-4.51,13.98,2.71,16.24l17.14,5.41
	c-9.47,27.07-27.07,48.72-49.62,63.6c-2.71,1.8-1.8,6.77,1.35,7.22c41.95,7.22,83.45-15.79,98.34-55.93l17.59,5.41
	c7.22,2.26,13.98-4.51,11.28-11.73L373.87,309.06z"/>
</svg>
