<?xml version="1.0" encoding="utf-8"?>
<!-- Generator: Adobe Illustrator 23.0.0, SVG Export Plug-In . SVG Version: 6.00 Build 0)  -->
<svg version="1.1" id="Layer_1" xmlns="http://www.w3.org/2000/svg" xmlns:xlink="http://www.w3.org/1999/xlink" x="0px" y="0px"
	 viewBox="0 0 500 500" style="enable-background:new 0 0 500 500;" xml:space="preserve">
<style type="text/css">
	.st0{fill:#525252;}
	.st1{fill:#057EE6;}
</style>
<path class="st0" d="M235.61,221.24v-98.62H78.01c-13.06,0-23.67,10.61-23.67,23.67v51.32c0,13.06,10.61,23.67,23.67,23.67h157.6
	V221.24z"/>
<path class="st0" d="M421.99,122.63h-157.6v98.62h157.6c13.06,0,23.67-10.61,23.67-23.67V146.3
	C445.66,133.24,435.05,122.63,421.99,122.63z"/>
<path class="st1" d="M190.23,22.3c-6.83-3.78-14.54-5.8-22.3-5.8c-16.65,0-32.02,9.04-40.07,23.52
	c-12.33,22.1-4.37,50.09,17.73,62.37c5.5,3.04,16.7,7.12,50.19,7.12c18.47,0,34.82-1.28,35.51-1.33c3.68-0.29,7.02-2.41,8.84-5.65
	s1.87-7.17,0.15-10.46C235.22,82.31,208.99,32.76,190.23,22.3z M195.78,87.42c-29.32,0-37.57-3.34-39.39-4.32
	c-11.39-6.38-15.52-20.82-9.13-32.22c4.17-7.51,12.13-12.18,20.72-12.18c3.98,0,7.96,1.03,11.49,3
	c6.88,3.83,20.82,24.31,32.86,45.38C207.32,87.27,201.63,87.42,195.78,87.42z"/>
<path class="st1" d="M304.22,109.57c33.49,0,44.69-4.08,50.19-7.12c22.1-12.33,30.06-40.32,17.73-62.37
	c-8.1-14.54-23.43-23.57-40.07-23.57c-7.76,0-15.47,2.01-22.3,5.8c-18.76,10.46-44.99,60.01-50.04,69.84
	c-1.72,3.29-1.62,7.22,0.15,10.46c1.82,3.24,5.11,5.35,8.84,5.65C269.4,108.29,285.75,109.57,304.22,109.57z M320.57,41.69
	c3.54-1.96,7.51-3,11.49-3c8.59,0,16.55,4.67,20.72,12.18c6.34,11.39,2.26,25.88-9.13,32.22c-1.82,1.03-10.07,4.32-39.39,4.32
	c-5.84,0-11.54-0.15-16.5-0.34C299.75,65.95,313.7,45.52,320.57,41.69z"/>
<path class="st0" d="M362.46,305.91c3.34,3.34,1.96,8.4-2.26,8.3l-27.21,2.9l-2.9,27.21c0.1,4.27-4.96,5.65-8.3,2.26l-57.41-57.41
	V458.5h143.94c8.45,0,15.32-6.88,15.32-15.32V248.5h-118.6L362.46,305.91z"/>
<path class="st0" d="M169.9,344.32l-2.9-27.21l-27.21-2.9c-4.27,0.1-5.65-4.96-2.26-8.3l57.41-57.41H76.34v194.63
	c0,8.45,6.88,15.32,15.32,15.32h143.94V289.16l-57.41,57.41C174.86,349.92,169.85,348.54,169.9,344.32z"/>
</svg>
