<?xml version="1.0" encoding="utf-8"?>
<!-- Generator: Adobe Illustrator 23.0.0, SVG Export Plug-In . SVG Version: 6.00 Build 0)  -->
<svg version="1.1" id="Layer_1" xmlns="http://www.w3.org/2000/svg" xmlns:xlink="http://www.w3.org/1999/xlink" x="0px" y="0px"
	 viewBox="0 0 500 500" style="enable-background:new 0 0 500 500;" xml:space="preserve">
<style type="text/css">
	.st0{fill:#525252;}
	.st1{fill:#057EE6;}
</style>
<title>76 all</title>
<path class="st0" d="M130.21,366.7h86.61c9.25,0,16.74-7.49,16.74-16.74c0-9.25-7.49-16.74-16.74-16.74h-86.61
	c-9.25,0-16.74-7.49-16.74-16.74v-159h55.56c16.19,0,29.29-13.1,29.29-29.29l0,0V72.6h93.51c9.25,0,16.74,7.49,16.74,16.74v141.88
	c0,9.25,7.49,16.74,16.74,16.74c9.25,0,16.74-7.49,16.74-16.74V89.34c0-27.74-22.47-50.21-50.21-50.21H181.59
	c-1.13,0-2.22,0.13-3.31,0.33c-0.67,0.17-1.34,0.38-2.01,0.63l-1.13,0.33c-0.71,0.33-1.38,0.67-2.05,1.09l-0.84,0.46
	c-0.88,0.59-1.72,1.3-2.47,2.05l0,0l-84.9,84.69l0,0c-0.75,0.75-1.46,1.59-2.05,2.51c0,0.25-0.25,0.5-0.42,0.75
	c-0.42,0.67-0.79,1.38-1.13,2.13c0,0.33-0.21,0.71-0.33,1.05c-0.25,0.67-0.46,1.34-0.63,2.05c-0.21,1.09-0.33,2.18-0.33,3.31v175.73
	c-0.13,27.74,22.22,50.33,49.96,50.46C130.04,366.7,130.13,366.7,130.21,366.7z M137.16,124.03l27.7-27.7v27.7
	C164.85,124.03,137.16,124.03,137.16,124.03z"/>
<path class="st1" d="M272.01,177.83H150.25c-9.25,0-16.74,7.49-16.74,16.74c0,9.25,7.49,16.74,16.74,16.74h121.76
	c9.25,0,16.74-7.49,16.74-16.74C288.74,185.32,281.26,177.83,272.01,177.83z"/>
<path class="st1" d="M272.01,228.04H150.25c-9.25,0-16.74,7.49-16.74,16.74c0,9.25,7.49,16.74,16.74,16.74h121.76
	c9.25,0,16.74-7.49,16.74-16.74C288.74,235.53,281.26,228.04,272.01,228.04z"/>
<path class="st0" d="M383.6,375.78c22.26-35.31,11.63-82.01-23.68-104.27c-35.31-22.26-82.01-11.63-104.27,23.68
	s-11.63,82.01,23.68,104.27c24.64,15.52,55.98,15.52,80.59,0l31.51,31.51c6.53,6.53,17.15,6.53,23.68,0
	c6.53-6.53,6.53-17.15,0-23.68L383.6,375.78z M278.03,335.74c0-23.1,18.74-41.84,41.84-41.84s41.84,18.74,41.84,41.84
	s-18.74,41.84-41.84,41.84l0,0C296.78,377.58,278.03,358.84,278.03,335.74z"/>
</svg>
