<?xml version="1.0" encoding="utf-8"?>
<!-- Generator: Adobe Illustrator 16.0.0, SVG Export Plug-In . SVG Version: 6.00 Build 0)  -->
<!DOCTYPE svg PUBLIC "-//W3C//DTD SVG 1.1//EN" "http://www.w3.org/Graphics/SVG/1.1/DTD/svg11.dtd">
<svg version="1.1" id="Layer_1" xmlns="http://www.w3.org/2000/svg" xmlns:xlink="http://www.w3.org/1999/xlink" x="0px" y="0px"
	 width="179px" height="79px" viewBox="0 0 179 79" enable-background="new 0 0 179 79" xml:space="preserve">
<path fill="#1E3465" d="M62.526,45.193C62.794,51.244,65.753,54,71.064,54c3.831,0,6.925-2.352,7.53-4.502h8.402
	c-2.69,8.201-8.402,11.697-16.268,11.697c-10.957,0-17.747-7.529-17.747-18.287c0-10.42,7.192-18.352,17.747-18.352
	c11.832,0,17.545,9.948,16.874,20.637H62.526z M78.056,39.145c-0.875-4.842-2.958-7.396-7.597-7.396
	c-6.05,0-7.798,4.707-7.933,7.396H78.056z"/>
<polygon fill="#1E3465" points="50.979,30.735 19.864,20.703 19.864,29.491 41.464,36.414 19.864,43.363 19.864,44.105 
	19.864,52.09 19.864,52.152 42.078,44.99 50.981,42.143 50.981,42.119 50.981,30.797 50.981,30.735 50.981,30.734 "/>
<rect x="19.864" y="52.152" fill="#48C2C5" width="31.117" height="8.086"/>
<path fill="#1E3465" d="M110.294,24.557c-4.302,0-8.604,1.612-10.957,5.174h-0.135V12.253h-0.001v0.01l-9.546,3.077v44.912h9.076
	v-4.438h0.135c2.084,3.834,6.32,5.379,11.428,5.379c6.925,0,14.388-5.578,14.388-18.352
	C124.682,30.136,117.219,24.557,110.294,24.557 M107,54c-5.646,0-8.134-5.311-8.134-11.092c0-5.848,2.488-11.159,8.134-11.159
	c5.646,0,8.136,5.311,8.136,11.159C115.136,48.689,112.646,54,107,54"/>
<path fill="#1E3465" d="M149.739,43.715c0,7.061-2.217,9.949-7.395,9.949c-4.436,0-6.117-2.822-6.117-8.537V25.498V25.5
	l-9.547,3.078v18.297c0,8.605,2.555,14.32,12.708,14.32c4.032,0,8.201-1.883,10.622-5.783h0.2v4.84h9.075V25.499l-9.547,3.078
	V43.715z"/>
</svg>
