<?xml version="1.0" encoding="utf-8"?>
<!-- Generator: Adobe Illustrator 23.0.3, SVG Export Plug-In . SVG Version: 6.00 Build 0)  -->
<svg version="1.1" id="Layer_1" xmlns="http://www.w3.org/2000/svg" xmlns:xlink="http://www.w3.org/1999/xlink" x="0px" y="0px"
	 width="32px" height="1600px" viewBox="0 0 32 1600" style="enable-background:new 0 0 32 1600;" xml:space="preserve">
<g id="Text_Annotation" transform="translate(17.000000, 16.000000)">
	<path id="Combined-Shape" d="M3.3-3.6H0v9.4h-2.2v-9.4h-3.4v-1.7h8.9C3.3-5.3,3.3-3.6,3.3-3.6z M-14,13v-26h26v26H-14z M-11.4,10.4
		H9.4v-20.8h-20.8V10.4z"/>
</g>
<g id="Average_Line" transform="translate(72.000000, 17.000000)">
	<path id="Combined-Shape_1_" d="M-67.7,29.4h21.1h2.3v-7.9h1.3v7.9v3v8.1h-1.3v-8.1h-23.4v8.1H-69v-8.1v-3v-7.9h1.3V29.4z"/>
</g>
<g id="Callout" transform="translate(127.000000, 16.000000)">
	<path id="Fill-1" d="M-103.2,50.9h-15.6c-2.9,0-5.2,2.3-5.2,5.2v8.5c0,2.9,2.3,5.2,5.2,5.2v7.1l7.8-7.1h7.8c2.9,0,5.2-2.3,5.2-5.2
		v-8.5C-98,53.2-100.3,50.9-103.2,50.9 M-103.2,53.5c1.5,0,2.6,1.1,2.6,2.6v8.5c0,1.5-1.1,2.6-2.6,2.6h-7.8h-1l-0.8,0.7l-3.5,3.1
		v-1.2v-2.6h-2.6c-1.5,0-2.6-1.1-2.6-2.6v-8.5c0-1.5,1.1-2.6,2.6-2.6H-103.2"/>
</g>
<g id="Channel" transform="translate(182.000000, 16.000000)">
	<path id="Combined-Shape_2_" d="M-154.1,83l1.1,2.3l-24.9,12.5l-1.1-2.3L-154.1,83z M-179,106.7l24.9-12.4l1.1,2.3l-24.9,12.5
		L-179,106.7z"/>
</g>
<g id="LineSans_Doodle" transform="translate(292.000000, 18.000000)">
	<path id="Fill-1_2_" d="M-280.6,156.6L-280.6,156.6c-0.7,1.5-1,3.2-0.9,4.8c0.2,1.2,0.7,2,1,2.2c0.3-0.3,0.9-1.3,0.9-2.8
		C-279.5,159.3-280,157.9-280.6,156.6 M-280.5,166c-0.5,0-1-0.2-1.5-0.4c-1-0.7-1.8-2.2-2-3.9c-0.3-2,0.1-4.2,1-6.1
		c0.2-0.3,0.3-0.7,0.6-1c-0.5-0.3-1-0.4-1.5-0.3c-1,0.3-2.3,2.1-2.6,4.6l-2.5-0.3c0.4-3.3,2.2-6,4.3-6.7c1.3-0.4,2.7-0.2,3.9,0.7
		c0.3-0.3,0.5-0.5,0.8-0.7c1-0.9,2.3-1.7,3.7-1.7c1.7,0,3.2,1.2,3.8,3.1c0.4,1.5,0.4,1.9,0.3,2.9c0,0.3-0.1,0.7-0.1,1.2
		c-0.1,1,0.1,1.2,0.1,1.3c0.1,0.1,0.3,0.2,0.4,0.3c0.2-0.1,0.3-0.3,0.6-0.8c0.3-0.4,0.4-0.8,0.6-1c0.3-0.4,0.4-0.7,0.6-1.3
		c0.7-2.2,1.6-3.4,2.9-3.9c1.5-0.7,2.9-0.3,4,0.1l-0.9,2.3c-1-0.3-1.6-0.3-2.1-0.2c-0.5,0.3-1,1.1-1.6,2.5c-0.3,0.9-0.6,1.4-0.9,1.8
		c-0.2,0.3-0.3,0.5-0.4,0.9c-0.3,0.6-1,1.7-2.2,2.2c-0.6,0.2-1.2,0.1-1.7-0.2c-1.6-0.9-2.1-1.6-2-3.9c0-0.6,0.1-1,0.1-1.4
		c0.1-0.7,0.1-0.9-0.3-1.8s-0.9-1.4-1.3-1.4l0,0c-0.6,0-1.5,0.6-2.1,1.1c-0.3,0.2-0.5,0.4-0.8,0.7c0.2,0.3,0.3,0.4,0.4,0.7
		c1,1.6,1.5,3.7,1.5,5.6c-0.1,2.2-1,4.8-2.9,5.2C-280.1,165.9-280.3,166-280.5,166"/>
</g>
<g id="LineSans_Horizontal" transform="translate(347.000000, 16.000000)">
	<polygon points="-344,193.3 -318,193.3 -318,190.7 -344,190.7 	"/>
</g>
<g id="LineSans" transform="translate(402.000000, 18.000000)">
	<polygon points="-374.3,213.3 -399,228.5 -397.7,230.7 -373,215.5 	"/>
</g>
<g id="LineSans_Segment" transform="translate(457.000000, 16.000000)">
	<path id="Combined-Shape_8_" d="M-454,252.8l0.7-2.4l19.3,5.7l-0.7,2.4L-454,252.8z M-432.7,263.4v-1.8h2.5v1.8H-432.7z
		 M-437.7,263.4v-1.8h2.5v1.8H-437.7z M-442.7,263.4v-1.8h2.5v1.8H-442.7z M-447.7,263.4v-1.8h2.5v1.8H-447.7z M-452.7,263.4v-1.8
		h2.5v1.8H-452.7z M-429.8,242v-1.9h1.3v1.9H-429.8z M-429.8,246.8v-2.4h1.8v2.4H-429.8z M-429.8,251.6v-2.4h1.8v2.4H-429.8z
		 M-429.8,256.3v-2.4h1.8v2.4H-429.8z M-429.8,261.2v-2.4h1.8v2.4H-429.8z M-429.8,265.5v-1.9h1.3v1.9H-429.8z"/>
</g>
<g id="LineSans_Continuouos" transform="translate(512.000000, 21.000000)">
	<polygon points="-484.8,276.9 -490.4,283.1 -496.1,280.4 -502.4,285.5 -506.9,278.6 -509,279.8 -502.9,289.1 -495.7,283.2 
		-489.8,286 -483,278.5 	"/>
</g>
<g id="LineSans_Vertical" transform="translate(567.000000, 16.000000)">
	<polygon points="-552.7,332.9 -549.3,332.9 -549.3,306.9 -552.7,306.9 	"/>
</g>
<g id="Shape_Elipse" transform="translate(609.000000, 17.000000)">
	<path id="Fill-1_4_" d="M-593,341.4c-7.2,0-13,4.2-13,9.5s5.8,9.5,13,9.5s13-4.2,13-9.5S-585.8,341.4-593,341.4 M-593,343.9
		c5.6,0,10.4,3.2,10.4,7s-4.8,7-10.4,7s-10.4-3.2-10.4-7S-598.6,343.9-593,343.9"/>
</g>
<g id="Fib_Retracement" transform="translate(664.000000, 16.000000)">
	<path id="Combined-Shape_10_" d="M-637.6,373v-1.7h2.4v1.7H-637.6z M-642.5,373v-1.7h2.4v1.7H-642.5z M-650.5,384.2V383h14.9v1.2
		H-650.5z M-636.8,396.6v-1.7h1.8v1.7H-636.8z M-641.7,396.6v-1.7h2.4v1.7H-641.7z M-646.5,396.6v-1.7h2.4v1.7H-646.5z
		 M-651.3,396.6v-1.7h2.4v1.7H-651.3z M-656.1,396.6v-1.7h2.4v1.7H-656.1z M-661,396.6v-1.7h2.4v1.7H-661z M-655.5,390.7v-2.5h19.8
		v2.5H-655.5z M-645.6,379.5V377h10v2.5H-645.6z"/>
</g>
<g id="Fib_Projection" transform="translate(719.000000, 16.000000)">
	<path id="Combined-Shape_11_" d="M-715.4,427.9v-1.2h1.8v1.2H-715.4z M-696.9,428.4v-1.8h2.4v1.8H-696.9z M-701.7,428.4v-1.8h2.4
		v1.8H-701.7z M-706.5,428.4v-1.8h2.4v1.8H-706.5z M-711.2,428.4v-1.8h2.4v1.8H-711.2z M-692.2,427.9v-1.2h1.8v1.2H-692.2z
		 M-705.1,416.4v-1.8h2.4v1.8H-705.1z M-710,416.4v-1.8h2.4v1.8H-710z M-701.4,421.8v-1.2h1.8v1.2H-701.4z M-697.3,421.8v-1.2h2.4
		v1.2H-697.3z M-692.5,421.8v-1.2h1.8v1.2H-692.5z M-715,421.8v-1.2h2.4v1.2H-715z M-714.9,405.9v-2.4h24.5v2.4H-714.9z
		 M-714.9,410.3v-1.2h19v1.2H-714.9z M-706.8,420.5l15.3-12.1l1.6,1.8l-16.9,13.4l-9.1-8.3l1.6-1.7L-706.8,420.5z"/>
</g>
<g id="Fib_Arc" transform="translate(774.000000, 16.000000)">
	<path id="Combined-Shape_12_" d="M-753.1,458.3h-1.1v-0.6c0-2-1.6-3.7-3.7-3.7s-3.7,1.6-3.7,3.7v0.6h-1.1v-0.6
		c0-2.7,2.2-4.9,4.9-4.9s4.9,2.2,4.9,4.9v0.6H-753.1z M-759.1,449.8l-0.1-1.1h0.6c0.2,0,0.4,0,0.6,0s0.3,0,0.6,0h0.6l-0.1,1.1h-0.6
		c-0.2,0-0.3,0-0.5,0s-0.3,0-0.5,0H-759.1z M-754,450.8l-0.5-0.2c-0.3-0.2-0.6-0.3-1-0.4l-0.5-0.2l0.3-1l0.5,0.2
		c0.3,0.1,0.8,0.3,1.1,0.4l0.5,0.3L-754,450.8z M-762.1,450.9l-0.5-1l0.5-0.3c0.3-0.2,0.7-0.3,1.1-0.4l0.5-0.2l0.3,1l-0.5,0.2
		c-0.3,0.1-0.6,0.3-1,0.4L-762.1,450.9z M-751.7,452.9l-0.3-0.4c-0.3-0.3-0.4-0.5-0.8-0.7l-0.4-0.3l0.8-0.9l0.4,0.3
		c0.3,0.3,0.6,0.5,0.9,0.9l0.3,0.4L-751.7,452.9z M-764.3,452.9l-0.9-0.8l0.3-0.4c0.3-0.3,0.5-0.6,0.9-0.9l0.4-0.3l0.8,0.9l-0.4,0.3
		c-0.3,0.3-0.5,0.4-0.7,0.7L-764.3,452.9z M-750.3,455.6l-0.2-0.5c-0.1-0.3-0.3-0.6-0.4-1l-0.3-0.5l1-0.5l0.3,0.5
		c0.2,0.3,0.3,0.7,0.4,1.1l0.2,0.5L-750.3,455.6z M-765.7,455.7l-1-0.3l0.2-0.5c0.1-0.3,0.3-0.8,0.4-1.1l0.3-0.5l1,0.5l-0.3,0.5
		c-0.2,0.3-0.3,0.6-0.4,1L-765.7,455.7z M-748.9,458.3h-1.1v-0.6c0-0.2,0-0.3,0-0.5v-0.6l1.1-0.1v0.6c0,0.2,0,0.4,0,0.6V458.3z
		 M-756.3,445.6l-0.6-0.1c-0.3,0-0.7-0.1-1.1-0.1h-0.6v-1.1h0.6c0.4,0,0.8,0,1.2,0.1l0.6,0.1L-756.3,445.6z M-761.7,446.1l-0.3-1.1
		l0.5-0.2c0.3-0.1,0.8-0.2,1.1-0.3l0.5-0.1l0.2,1.1l-0.5,0.1c-0.3,0.1-0.7,0.2-1,0.3L-761.7,446.1z M-753.1,446.5l-0.5-0.3
		c-0.3-0.1-0.7-0.3-1-0.3l-0.5-0.2l0.3-1.1l0.5,0.2c0.3,0.1,0.8,0.3,1.1,0.3l0.5,0.2L-753.1,446.5z M-764.7,447.4l-0.6-1l0.5-0.3
		c0.3-0.2,0.7-0.3,1-0.5l0.5-0.3l0.5,1l-0.5,0.3c-0.3,0.2-0.6,0.3-1,0.5L-764.7,447.4z M-750.4,448.2l-0.4-0.3
		c-0.3-0.2-0.6-0.4-0.9-0.6l-0.5-0.3l0.6-1l0.5,0.3c0.3,0.2,0.7,0.4,1,0.7l0.4,0.3L-750.4,448.2z M-767.1,449.6l-0.8-0.8l0.4-0.4
		c0.3-0.3,0.6-0.5,0.9-0.8l0.4-0.3l0.7,0.9l-0.4,0.3c-0.3,0.3-0.5,0.5-0.8,0.8L-767.1,449.6z M-748.1,450.5l-0.3-0.4
		c-0.3-0.3-0.4-0.5-0.7-0.8l-0.4-0.4l0.8-0.8l0.4,0.4c0.3,0.3,0.5,0.6,0.8,0.9l0.3,0.4L-748.1,450.5z M-768.9,452.2l-1-0.5l0.3-0.5
		c0.2-0.3,0.4-0.7,0.6-1l0.3-0.4l1,0.6l-0.3,0.4c-0.2,0.3-0.4,0.6-0.6,1L-768.9,452.2z M-746.8,452.8l-0.3-0.5
		c-0.1-0.2-0.2-0.3-0.2-0.3l-0.3-0.5l1-0.5l0.3,0.5c0.1,0.2,0.2,0.3,0.3,0.4l0.3,0.5L-746.8,452.8z M-769.4,445l-1.6-1.6l0.9-0.8
		c3.3-3.1,7.6-4.9,12.1-4.9s8.8,1.7,12.1,4.9l0.9,0.8l-1.6,1.6l-0.9-0.8c-2.9-2.7-6.7-4.2-10.6-4.2c-4,0-7.7,1.5-10.6,4.2
		L-769.4,445z"/>
	<path id="Fill-3" d="M-766,458.3h-1.1v-0.6c0-0.2,0-0.4,0-0.6v-0.6l1.1,0.1v0.6c0,0.2,0,0.3,0,0.5V458.3z"/>
</g>
<g id="Fib_Fan" transform="translate(829.000000, 16.000000)">
	<path id="Combined-Shape_13_" d="M-819.2,484.4l16.1-15.3l0.9,0.9l-18.6,17.8l-1.2,2.4h21.9v2.5h-26l12.7-25.3l2.3,1.1
		L-819.2,484.4z M-819.5,489.4l-0.6-1l1.6-1l0.6,1L-819.5,489.4z M-806.5,481.8l-0.6-1l2.2-1.3l0.6,1L-806.5,481.8z M-811.1,484.5
		l-0.6-1l2.2-1.3l0.6,1L-811.1,484.5z M-815.6,487.2l-0.6-1l2.2-1.3l0.6,1L-815.6,487.2z M-802.6,478.1l1.6-1l0.6,1l-1.6,1
		L-802.6,478.1z M-805,487.5l-0.3-1.2l2.4-0.6l0.3,1.2L-805,487.5z M-809.8,488.7l-0.3-1.2l2.4-0.6l0.3,1.2L-809.8,488.7z
		 M-814.7,489.8l-0.3-1.2l2.4-0.6l0.3,1.2L-814.7,489.8z"/>
</g>
<g id="Fib_TimeZones" transform="translate(884.000000, 15.000000)">
	<path id="Combined-Shape_18_" d="M-868.3,508.4v-1.9h1.2v1.9H-868.3z M-868.3,505.2v-2.1h1.2v2.1H-868.3z M-868.3,501.8v-1.9h1.2
		v1.9H-868.3z M-868.3,525.9V524h1.2v1.9H-868.3z M-868.3,521.9v-2.3h1.2v2.3H-868.3z M-868.3,517.5v-1.9h1.2v1.9H-868.3z
		 M-862.8,504.8v-1.9h1.2v1.9H-862.8z M-862.8,501.8v-1.9h1.2v1.9H-862.8z M-862.8,525.9V524h1.2v1.9H-862.8z M-862.8,521.6v-2.5
		h1.2v2.5H-862.8z M-862.8,516.6v-1.9h1.2v1.9H-862.8z M-857.3,525.6v-1.9h1.2v1.9H-857.3z M-857.3,506.7v-2.5h1.2v2.5H-857.3z
		 M-857.3,511.6v-2.4h1.2v2.4H-857.3z M-857.3,516.5V514h1.2v2.5H-857.3z M-857.3,521.4v-2.5h1.2v2.5H-857.3z M-857.3,501.8v-1.9
		h1.2v1.9H-857.3z M-877.4,514.9l17.9-7.5l0.9,2.2l-18.7,7.8v7.9h-2.4v-25h2.4v14.6H-877.4z M-873.8,525.6v-7.9h1.2v7.9H-873.8z
		 M-873.8,511.5V500h1.2v11.5H-873.8z"/>
</g>
<g id="Gann_Fan" transform="translate(939.000000, 16.000000)">
	<path id="Combined-Shape_19_" d="M-927.4,534.1l-0.3,0.7l-1-0.6l1-1.9l-0.3-0.9l2.4-0.7l0.3,0.9l0.2-0.3l2,1.4l-0.7,1l-1-0.8
		l0.1,0.3l14.7,20.1l-1,0.7l-12.7-17.4l5.6,19.5l-2.4,0.7l-5.9-20.1l-2.9,19.5l-1.2-0.2L-927.4,534.1z M-921.9,535.3l0.7-1l2,1.4
		l-0.7,1L-921.9,535.3z M-931.1,538.5l1.1-2.1l1,0.6l-1.1,2.1L-931.1,538.5z M-918,538.1l0.7-1l2,1.4l-0.7,1L-918,538.1z
		 M-914.1,541l0.7-1l2,1.4l-0.7,1L-914.1,541z M-933.5,542.7l1.1-2.1l1,0.6l-1.1,2.1L-933.5,542.7z M-935.8,547l1.1-2.1l1,0.6
		l-1.1,2.1L-935.8,547z"/>
</g>
<g id="Gartley" transform="translate(994.000000, 15.000000)">
	<path id="Combined-Shape_20_" d="M-978.3,576l-4.3-7.7l-5.9,6.9l-1.9-1.6l8.2-9.7l14,24.7l-2.2,1.3l-6.9-12.2h-1L-978.3,576
		L-978.3,576z M-983.1,577.2v-1.3h1.9v1.3H-983.1z M-972.9,577.7V576h2.6v1.6h-2.6V577.7z M-967.4,577.2v-1.3h1.9v1.3H-967.4z"/>
</g>
<g id="Pitchfork" transform="translate(17.000000, 91.000000)">
	<path id="Combined-Shape_24_" d="M0.6,532.9l4.7,4.7l4.8-4.8l1.7,1.7L5.5,541l-1.7-1.7l0,0l-4.7-4.7l-11.2,11.2l-1.7-1.7l11.3-11.3
		l-4-4l0,0l-1.7-1.7l7.3-7.3l1.7,1.7l-5.6,5.6l4,4L10.3,520l1.7,1.7L0.6,532.9z"/>
</g>
<g id="Quadrant_Lines" transform="translate(72.000000, 91.000000)">
	<path id="Combined-Shape_26_" d="M-68,566.1v-2.6h24v2.6H-68z M-69,577.4v-1.3h2v1.3H-69z M-49.9,577.8v-1.7h2.5v1.7H-49.9z
		 M-54.8,577.8v-1.7h2.5v1.7H-54.8z M-59.7,577.8v-1.7h2.5v1.7H-59.7z M-64.7,577.8v-1.7h2.5v1.7H-64.7z M-45,577.4v-1.3h2v1.3H-45z
		 M-69,553.5v-1.3h2v1.3H-69z M-49.9,553.9v-1.7h2.5v1.7H-49.9z M-54.8,553.9v-1.7h2.5v1.7H-54.8z M-59.7,553.9v-1.7h2.5v1.7H-59.7z
		 M-64.7,553.9v-1.7h2.5v1.7H-64.7z M-45,553.5v-1.3h2v1.3H-45z M-68,558.2v-1.3h24v1.3H-68z M-67.7,572.7v-1.3h23.5v1.3H-67.7z"/>
</g>
<g id="Ray" transform="translate(127.000000, 91.000000)">
	<path id="Combined-Shape_27_" d="M-104,590.9h1.8v1.7h-2.3l-17.7,11l-1.2-2.1l14.3-9h-0.3v-1.7h2.4v0.4l1.2-0.8v-1.8h1.7
		L-104,590.9L-104,590.9z M-99.7,592.6v-1.7h1.5v1.7H-99.7z M-114.1,592.6v-1.7h2.4v1.7H-114.1z M-119,592.6v-1.7h2.4v1.7H-119z
		 M-123.8,592.6v-1.7h2.4v1.7H-123.8z M-105.7,586.3v-2.4h1.7v2.4H-105.7z M-105.7,596.1v-2.4h1.7v2.4H-105.7z M-105.7,601v-2.4h1.7
		v2.4H-105.7z M-105.7,605.9v-2.4h1.7v2.4H-105.7z M-105.7,609.8v-1.5h1.7v1.5H-105.7z"/>
</g>
<g id="Shape_Rectangle" transform="translate(182.000000, 93.000000)">
	<path id="Combined-Shape_28_" d="M-179,636.3v-19.1h26v19.1H-179z M-176.4,633.8h20.8v-14h-20.8V633.8z"/>
</g>
<g id="Regression_Line" transform="translate(237.000000, 91.000000)">
	<path id="Combined-Shape_29_" d="M-209.3,658.9l-23.4,7.3v-3l23.4-7.3v-7.2h1.3v16.6h-1.3V658.9z M-234,672.9v-16.6h1.3v16.6H-234z
		"/>
</g>
<g id="Shape_Check" transform="translate(292.000000, 93.000000)">
	<polygon id="Fill-1_6_" points="-266.1,681.3 -280,693.8 -285.8,688.3 -289,691.8 -280.1,700.3 -263,684.9 	"/>
</g>
<g id="Shape_Cross" transform="translate(347.000000, 91.000000)">
	<path id="Combined-Shape_30_" d="M-331,722.8l10.8-10.8l2.2,2.1l-10.8,10.9l10.8,10.8l-2.1,2.2l-10.9-10.8l-10.8,10.8l-2.2-2.1
		l10.8-10.9l-10.8-10.8l2.1-2.2L-331,722.8z"/>
</g>
<g id="Shape_Focus" transform="translate(402.000000, 92.000000)">
	<path id="Combined-Shape_31_" d="M-399,744.6L-399,744.6l11,11.4l-11,11.4V744.6z M-396.4,751.1v9.9l4.7-4.9L-396.4,751.1z
		 M-373,744.6L-373,744.6v23l-11-11.4L-373,744.6z M-380.3,756l4.7,4.9V751L-380.3,756z"/>
</g>
<g id="Shape_Heart" transform="translate(457.000000, 92.000000)">
	<path id="Fill-1_7_" d="M-446.8,778.3c-0.8,0-1.6,0.2-2.3,0.6c-1.4,0.7-2.3,2.3-2.3,4v0.3c0,0.5,0.2,1.2,0.4,2
		c1.8,5,7.9,10.1,10.1,11.7c2.1-1.7,8.1-6.7,9.9-11.7c0.3-0.9,0.4-1.7,0.4-2.3v-0.2c0-1.7-0.9-3.2-2.3-3.9c-1.5-0.8-3-0.8-4.3-0.2
		s-2.3,1.8-2.5,3.2c-0.2,0.6-0.6,1-1.3,1c-0.6,0-1.1-0.4-1.2-1c-0.3-1.4-1.3-2.6-2.5-3.2C-445.5,778.5-446.1,778.3-446.8,778.3
		 M-440.9,799.9c-0.3,0-0.5-0.1-0.8-0.3c-0.3-0.3-9.3-6.8-11.7-13.5c0,0-0.1-0.1-0.1-0.2c-0.3-1-0.5-2-0.6-2.9v-0.3
		c0-2.7,1.5-5.2,3.7-6.3s4.5-1.1,6.6-0.2c1,0.5,2,1.3,2.7,2.3c0.7-1,1.7-1.7,2.7-2.3c2.1-1,4.4-1,6.6,0.2c2.3,1.1,3.7,3.7,3.7,6.3
		v0.2c0,1-0.3,2-0.6,3.1c-2.4,6.8-11.2,13.1-11.6,13.5C-440.4,799.8-440.7,799.9-440.9,799.9"/>
</g>
<g id="Shape_Star" transform="translate(512.000000, 91.000000)">
	<path id="Combined-Shape_32_" d="M-496,808.7l4,8l9,1.3l-6.5,6.2l1.6,8.8l-8.1-4.2l-8.1,4.2l1.6-8.8l-6.5-6.2l9-1.3L-496,808.7z
		 M-500.1,824.5l-0.7,4l3.6-1.9l1.1-0.6l1.1,0.6l3.6,1.9l-0.7-4l-0.3-1.2l1-0.9l2.9-2.8l-4.1-0.6l-1.3-0.2l-0.6-1.1l-1.8-3.6
		l-1.8,3.6l-0.6,1.1l-1.3,0.2l-4.1,0.6l2.9,2.8l1,0.9L-500.1,824.5z"/>
</g>
<g id="Shape_Arrow" transform="translate(567.000000, 94.000000)">
	<path id="Combined-Shape_33_" d="M-546.3,845.9l-1.7-3.6l10.1,0.5l-5.5,8.9l-1.7-3.6l-17.7,9.4l-1.1-2.3L-546.3,845.9z"/>
</g>
<g id="SpeedResistance_Arc" transform="translate(622.000000, 93.000000)">
	<path id="Combined-Shape_34_" d="M-608.3,887.1l3,4.1l-1,0.7l-3-4.1c-1,0.9-1.6,2.1-1.6,3.5h-2.5c0-2.2,1-4.1,2.6-5.4l-2.3-3
		c-0.5,0.4-1,1-1.6,1.5l-1-0.8c0.5-0.6,1.1-1.2,1.7-1.7l0.1,0.1l-5.3-7l1-0.7l8.2,10.9c1.1-0.7,2.5-1.1,4-1.1c4.1,0,7.6,3.3,7.6,7.3
		h-2.5c0-2.7-2.2-4.8-5-4.8C-606.7,886.4-607.6,886.6-608.3,887.1z M-617.2,891.2h-1.3c0-0.4,0-0.9,0.1-1.3l1.2,0.1
		C-617.2,890.4-617.2,890.9-617.2,891.2z M-606.9,880.2l-0.1-1.2c0.8-0.1,1.6-0.1,2.5,0l-0.1,1.2
		C-605.4,880.1-606.2,880.1-606.9,880.2z M-600.4,881.4c-0.7-0.3-1.4-0.6-2.1-0.8l0.3-1.1c0.8,0.3,1.6,0.5,2.3,1L-600.4,881.4z
		 M-611.2,881.5l-0.6-1c0.7-0.3,1.5-0.7,2.3-1l0.3,1.1C-609.8,880.8-610.5,881.2-611.2,881.5z M-596.9,884.2c-0.5-0.5-1-1-1.6-1.6
		l0.8-1c0.6,0.5,1.2,1,1.7,1.6L-596.9,884.2z M-594.9,887.9c-0.3-0.7-0.5-1.4-0.9-2l1.1-0.6c0.4,0.7,0.7,1.5,1,2.2L-594.9,887.9z
		 M-616.7,888l-1.2-0.3c0.3-0.8,0.6-1.5,1-2.2l1.1,0.6C-616.2,886.6-616.5,887.3-616.7,888z M-593,891.2h-1.3c0-0.3,0-0.8-0.1-1.1
		l1.2-0.1C-593,890.3-593,890.8-593,891.2z"/>
</g>
<g id="Time_Cycle" transform="translate(677.000000, 91.000000)">
	<path id="Combined-Shape_35_" d="M-649.1,929.8v-26h0.7v26H-649.1z M-661.2,929.8v-26h1.3v26H-661.2z M-654.9,929.8v-26h0.7v26
		H-654.9z M-673.6,929.8v-26h2.7v26H-673.6z M-667.1,929.8v-26h1.3v26H-667.1z"/>
</g>
<g id="Tirone_Levels" transform="translate(732.000000, 91.000000)">
	<path id="Combined-Shape_36_" d="M-727.6,956.4v-1.3h23.3v1.3H-727.6z M-727.6,941.8v-1.3h23.3v1.3H-727.6z M-724.8,946.3v-0.7
		h17.7v0.7H-724.8z M-724.7,951.2v-0.6h17.3v0.6H-724.7z M-729,962v-26h26v26H-729z M-727.7,960.7h23.4v-23.4h-23.4V960.7z"/>
</g>
<g id="Trend_Line" transform="translate(787.000000, 91.000000)">
	<path id="Combined-Shape_37_" d="M-773.9,973.6h-2v5.4h-1.2v-5.4h-1.9v-1h5.1L-773.9,973.6L-773.9,973.6z M-784,983.2v-15.1h15
		v15.1H-784z M-782.7,981.9h12.5v-12.6h-12.5V981.9z M-775.1,991.6l15.5-12.7l1.6,1.9l-15.5,12.7L-775.1,991.6z"/>
</g>
<g id="SpeedResistance_Line" transform="translate(842.000000, 91.000000)">
	<path id="Combined-Shape_38_" d="M-834.8,1022.6l1.7-0.9l0.5,1l-2,1l-0.5-1l-1,1l-0.8,1.6l-0.4-0.2l-0.4,0.2l-0.3-0.5l-1.1-0.5
		l12.2-24.2l2.2,1l-9.7,19.3l20.5-20.3l0.9,0.9L-834.8,1022.6z M-818.3,1015.8l-0.5-1l2-1l0.5,1L-818.3,1015.8z M-822.4,1017.8
		l-0.5-1l2-1l0.5,1L-822.4,1017.8z M-826.5,1019.9l-0.5-1l2-1l0.5,1L-826.5,1019.9z M-830.5,1021.9l-0.5-1l2-1l0.5,1L-830.5,1021.9z
		 M-814.8,1012.6l1.1-0.5l0.5,1l-1.1,0.5L-814.8,1012.6z"/>
</g>
<g id="Direct_Select2" transform="translate(346.000000, 182.000000)">
	<path id="Combined-Shape_39_" d="M-325.9,1152.1l-5.4,5.7l-6.6-19.8l19.8,6.6l-5.7,5.4l6.8,6.8l-2.2,2.2L-325.9,1152.1z
		 M-333.1,1142.9l3.1,9.2l2.9-3.1l0.1-0.1l0.1-0.1l3.1-2.9L-333.1,1142.9z M-343,1133h7.9v3.7h-1.5v-2.2h-4.9v4.9h2.2v1.5h-3.8
		L-343,1133L-343,1133z"/>
</g>
<polygon points="14.8,1361.1 11,1364.7 9.4,1350 21.7,1358.2 16.8,1359.9 22.6,1368.7 20.6,1370 "/>
<g id="Measure" transform="translate(16.000000, 182.000000)">
	<path id="Combined-Shape_54_" d="M-2.9,951.7l-1.4,1.4l2.7,2.7l-0.9,0.9l-2.7-2.7l-1.4,1.4l2.7,2.7l-0.9,0.9l-2.7-2.7l-1.4,1.4
		l2.7,2.7l-0.9,0.9l-2.7-2.7l-1.4,1.4l5,5l17.3-17.3l-5-5l-1.4,1.4l2.7,2.7l-0.9,0.9L4,944.8l-1.4,1.4l2.7,2.7l-0.9,0.9L1.7,947
		l-1.4,1.4l2.7,2.7L2.2,952l-2.7-2.7l-1.4,1.4l2.7,2.7l-0.9,0.9L-2.9,951.7z M6.2,940.8l6.8,6.8l-19.2,19.2L-13,960L6.2,940.8z"/>
</g>
<g id="Restore_Default" transform="translate(71.000000, 182.000000)">
	<path id="Combined-Shape_55_" d="M-61.8,978.2l3.3,1.3l-8,6.5l-1.5-10.3l3.6,1.4c2.5-2.7,5.9-4.3,9.5-4.3c7.1,0,12.9,5.9,12.9,13.1
		S-47.7,999-54.8,999v-2.6c5.7,0,10.3-4.7,10.3-10.5s-4.6-10.5-10.3-10.5C-57.4,975.5-59.9,976.4-61.8,978.2z M-51.9,986
		c0,1.4-1.1,2.5-2.5,2.5s-2.5-1.1-2.5-2.5s1.1-2.5,2.5-2.5C-53.1,983.4-51.9,984.6-51.9,986z"/>
</g>
<g id="Clear-Drawings" transform="translate(126.000000, 182.000000)">
	<path id="Combined-Shape_56_" d="M-120.9,1011.6v-2.5h21.7v2.5H-120.9z M-115.5,1007.5v-2.5h11v2.5H-115.5z M-119.1,1013.7h18.3
		l-1.1,17.2H-118L-119.1,1013.7z M-117.8,1015l1,14.7h13.7l1-14.7L-117.8,1015L-117.8,1015z M-110.6,1026.2v-8h1.2v8H-110.6z
		 M-114.5,1026.2v-8h1.2v8H-114.5z M-106.7,1026.3v-8h1.2v8H-106.7z"/>
</g>
<g id="Cancel-Copy" transform="translate(181.000000, 182.000000)">
	<g id="Cancel">
		<path id="Combined-Shape_57_" d="M-173.1,1056.2l14.4-14.6c-1.7-1.4-3.9-2.2-6.2-2.2c-5.6,0-10.2,4.7-10.2,10.4
			C-175.2,1052.2-174.4,1054.5-173.1,1056.2z M-171.2,1058c1.7,1.4,3.9,2.2,6.2,2.2c5.6,0,10.2-4.7,10.2-10.4c0-2.4-0.8-4.6-2.2-6.4
			L-171.2,1058z M-165,1062.8c-7,0-12.7-5.8-12.7-13s5.7-13,12.7-13s12.7,5.8,12.7,13S-158,1062.8-165,1062.8z"/>
	</g>
</g>
<g id="Undo" transform="translate(236.000000, 187.000000)">
	<path id="Combined-Shape_58_" d="M-226.8,1075.5l3.3,1.3l-7.8,6.8l-1.8-10.5l3.6,1.4c2.3-2.8,5.5-4.2,9.6-4.2
		c12.6,0,12.7,13.3,12.7,13.3h-2.5h1.3h-1.3c0-0.4-0.2-10.7-10.2-10.7C-222.7,1072.9-225,1073.8-226.8,1075.5z"/>
</g>
<g id="Redo" transform="translate(291.000000, 188.000000)">
	<path id="Combined-Shape_59_" d="M-265.6,1105.6l3.6-1.3l-1.8,9.8l-7.8-6.4l3.3-1.2c-1.7-1.6-4.1-2.4-7-2.4
		c-10.1,0-10.2,9.6-10.2,10h-2.4c0-0.1,0.2-12.5,12.7-12.5C-271.2,1101.7-267.9,1103-265.6,1105.6z"/>
</g>
<g id="Crosshair" transform="translate(237.000000, 15.000000)">
	<path id="Combined-Shape_3_" d="M-220.3,132.4h-13.4v-2.8h13.4V116h2.7v13.6h9.4v2.8h-9.4v9.6h-2.7V132.4z"/>
</g>
<g>
	<rect x="2" y="1378" width="12" height="12"/>
	<rect x="2" y="1394" width="12" height="12"/>
	<rect x="18" y="1378" width="12" height="12"/>
	<rect x="18" y="1394" width="12" height="12"/>
</g>
<g>
	<rect x="2" y="1409.9" width="12" height="12"/>
	<rect x="2" y="1426" width="11.9" height="11.9"/>
	<rect x="17" y="1414.9" width="13" height="3.1"/>
	<rect x="17" y="1431" width="13" height="3.1"/>
</g>
<g>
	<path d="M26.2,1501.2H5.8c-1.8,0-3.2-1.4-3.2-3.2v-20.3c0-1.8,1.4-3.2,3.2-3.2h12v2.8h-12c-0.3,0-0.5,0.2-0.5,0.5v20.3
		c0,0.3,0.2,0.5,0.5,0.5h20.3c0.3,0,0.5-0.2,0.5-0.5v-11.9h2.8v11.9C29.4,1499.8,27.9,1501.2,26.2,1501.2z"/>
</g>
<polygon points="21.4,1492.1 21.4,1489.3 16.5,1489.3 29.4,1476.4 27.4,1474.4 14.5,1487.3 14.5,1482.4 11.7,1482.4 11.7,1492.1 "/>
<g>
	<path d="M26.1,1469.3H5.8c-1.8,0-3.2-1.4-3.2-3.2v-20.3c0-1.8,1.4-3.2,3.2-3.2h12v2.8h-12c-0.3,0-0.5,0.2-0.5,0.5v20.3
		c0,0.3,0.2,0.5,0.5,0.5h20.3c0.3,0,0.5-0.2,0.5-0.5v-11.9h2.8v11.9C29.3,1467.8,27.8,1469.3,26.1,1469.3z"/>
</g>
<polygon points="19.6,1442.5 19.6,1445.3 24.5,1445.3 11.6,1458.2 13.6,1460.1 26.5,1447.2 26.5,1452.2 29.3,1452.2 29.3,1442.5 "/>
<path d="M29.1,1523.7l-2.4-1.4c0.2-1.3,0.2-2.7,0-4l2.4-1.4c0.3-0.2,0.4-0.5,0.3-0.8c-0.6-2-1.7-3.8-3.1-5.3
	c-0.2-0.2-0.6-0.3-0.8-0.1l-2.4,1.4c-1-0.9-2.2-1.5-3.4-2v-2.8c0-0.3-0.2-0.6-0.5-0.7c-2.1-0.5-4.2-0.4-6.2,0
	c-0.3,0.1-0.5,0.3-0.5,0.7v2.8c-1.3,0.4-2.4,1.1-3.4,2l-2.4-1.4c-0.3-0.2-0.6-0.1-0.8,0.1c-1.4,1.5-2.5,3.3-3.1,5.3
	c-0.1,0.3,0,0.6,0.3,0.8l2.4,1.4c-0.2,1.3-0.2,2.7,0,4l-2.4,1.4c-0.3,0.2-0.4,0.5-0.3,0.8c0.6,2,1.7,3.8,3.1,5.3
	c0.2,0.2,0.6,0.3,0.8,0.1l2.4-1.4c1,0.9,2.2,1.5,3.4,2v2.8c0,0.3,0.2,0.6,0.5,0.7c2.1,0.5,4.2,0.4,6.2,0c0.3-0.1,0.5-0.3,0.5-0.7
	v-2.8c1.3-0.4,2.4-1.1,3.4-2l2.4,1.4c0.3,0.2,0.6,0.1,0.8-0.1c1.4-1.5,2.5-3.3,3.1-5.3C29.5,1524.2,29.3,1523.9,29.1,1523.7z
	 M16,1524.9c-2.5,0-4.5-2-4.5-4.5s2-4.5,4.5-4.5s4.5,2,4.5,4.5S18.5,1524.9,16,1524.9z"/>
<polygon points="16,1539.7 20,1547.7 29,1549 22.5,1555.2 24.1,1564 16,1559.8 7.9,1564 9.5,1555.2 3,1549 12,1547.7 "/>
<path d="M16,1570.1c-7.1,0-12.8,5.7-12.8,12.8L5,1598h6.6l-1.5-15c0-3.7,2.1-5.9,5.9-5.9s5.9,2.2,5.9,5.9l-1.5,15.1H27l1.8-15
	C28.8,1575.9,23.1,1570.1,16,1570.1z M10.3,1592.7l0.5,4.6h-5l-0.5-4.6H10.3z M26.3,1597.3h-5.2l0.5-4.6h5.2L26.3,1597.3z"/>
</svg>
