<?xml version="1.0"?>
<svg xmlns="http://www.w3.org/2000/svg" height="512px" viewBox="0 -4 512.00011 512" width="512px" class=""><g><path d="m200 488.945312 85.121094-56.722656c66.789062-44.523437 106.898437-119.488281 106.878906-199.757812v-127.519532l-192-96-192 96v127.519532c-.019531 80.269531 40.089844 155.234375 106.878906 199.757812zm0 0" fill="#00c3ff" data-original="#00C3FF" class="" style="fill:#FFFFFF" data-old_color="#00c3ff"/><path d="m132.625 405.59375c-57.925781-38.554688-92.699219-103.546875-92.625-173.128906v-107.746094l160-80 160 80v107.746094c.070312 69.585937-34.707031 134.589844-92.640625 173.144531l-67.359375 44.878906zm0 0" fill="#91e8ed" data-original="#91E8ED" class="" style="fill:#FFFFFF" data-old_color="#91e8ed"/><path d="m295.800781 274.863281-63.800781-16h-64l-63.800781 16c-14.222657 3.574219-24.199219 16.363281-24.199219 31.03125v49.195313c14.433594 19.800781 32.246094 36.894531 52.625 50.503906l67.375 44.894531 67.359375-44.878906c20.386719-13.609375 38.207031-30.710937 52.640625-50.519531v-49.195313c0-14.667969-9.972656-27.457031-24.199219-31.03125zm0 0" fill="#ffea00" data-original="#FFEA00" class="" style="fill:#FFFFFF" data-old_color="#ffea00"/><path d="m168 232.945312v32c0 17.671876 14.328125 32 32 32s32-14.328124 32-32v-32zm0 0" fill="#ffdecf" data-original="#FFDECF" class="" style="fill:#FFFFFF" data-old_color="#ffdecf"/><path d="m248 144.945312v80l-32 24h-32l-32-24v-80zm0 0" fill="#ffdecf" data-original="#FFDECF" class="" style="fill:#FFFFFF" data-old_color="#ffdecf"/><path d="m232 120.945312h-8c-5.601562-8-88-18.007812-88 40h46.113281c11.761719 0 23.367188-2.738281 33.886719-8h8l24 32v-48c0-8.835937-7.164062-16-16-16zm0 0" fill="#50575e" data-original="#50575E" class="" style="fill:#FFFFFF" data-old_color="#50575e"/><path d="m504 368.945312c0 70.691407-57.308594 128-128 128s-128-57.308593-128-128c0-70.695312 57.308594-128 128-128s128 57.304688 128 128zm0 0" fill="#9ccc65" data-original="#9CCC65" class="" style="fill:#FFFFFF" data-old_color="#9ccc65"/><path d="m425.742188 295.40625-79.199219 79.195312-28.285157-28.28125-33.9375 33.9375 28.28125 28.285157 28.285157 28.28125 5.65625 5.65625 113.136719-113.136719zm0 0" fill="#fff" data-original="#FFF" class="active-path" data-old_color="#fff" style="fill:#057EE6"/><path d="m399.953125 235.191406c0-.910156.046875-135.199218.046875-135.199218l-200-99.992188-200 100v132.464844c-.078125 82.953125 41.382812 160.4375 110.441406 206.398437l89.558594 59.679688 68.992188-45.957031c37.289062 47.765624 101.703124 65.066406 157.90625 42.414062 56.207031-22.652344 90.621093-79.78125 84.371093-140.054688-6.253906-60.277343-51.660156-109.125-111.316406-119.761718zm-199.953125 244.152344-80.679688-53.777344c-64.613281-42.996094-103.402343-115.492187-103.320312-193.101562v-122.578125l184-92 184 92v123.464843c-2.65625-.160156-5.289062-.40625-8-.40625s-5.351562.246094-8 .40625c0-.296874 0-113.597656 0-113.597656l-168-83.992187-168 84v112.703125c-.058594 72.253906 36.054688 139.738281 96.199219 179.773437l71.800781 47.839844 52.335938-34.871094c2.238281 4.882813 4.765624 9.628907 7.566406 14.210938zm46.351562-69.367188-46.351562 30.878907-62.917969-41.925781c-3.105469-2.074219-6.113281-4.25-9.082031-6.480469v-71.503907h-16v58.078126c-8.78125-8.140626-16.8125-17.058594-24-26.640626v-46.488281c.003906-11 7.484375-20.589843 18.152344-23.269531l54.253906-13.601562c1.742188 17.347656 14.527344 31.558593 31.59375 35.121093v32.800781h16v-32.800781c17.066406-3.558593 29.847656-17.773437 31.585938-35.121093l35.613281 8.945312c-32.46875 35.707031-43.460938 86.003906-28.847657 132zm-86.351562-241.03125h22.113281c12.347657-.015624 24.542969-2.75 35.71875-8h2.167969l20 26.664063v33.335937l-26.664062 20h-26.671876l-26.664062-20zm-15.335938-16c1.621094-10.03125 8.007813-18.652343 17.136719-23.121093 17.695313-7.875 37.632813-9.128907 56.175781-3.535157l1.839844 2.65625h12.183594c4.417969 0 8 3.582032 8 8v24l-12-16h-13.886719l-1.6875.839844c-9.417969 4.691406-19.792969 7.144532-30.3125 7.160156zm79.335938 100v12c0 13.253907-10.746094 24-24 24s-24-10.746093-24-24v-12l5.335938 4h37.328124zm16-.3125v-11.6875l16-12v-92c0-13.257812-10.746094-24-24-24h-5.320312c-11.574219-7.035156-40.390626-8.457031-60.800782-2.074218-22.886718 5.621094-38.695312 26.519531-37.878906 50.074218v8h16v60l16 12v11.648438l-57.742188 14.519531c-17.796874 4.441407-30.277343 20.441407-30.257812 38.78125v21.601563c-15.765625-29.191406-24.015625-61.851563-24-95.03125v-102.816406l152-76 152 76v102.816406c0 .917968-.054688 1.832031-.0625 2.742187-23.332031 4.171875-45.15625 14.394531-63.296875 29.648438zm136 236.3125c-66.273438 0-120-53.726562-120-120 0-66.277343 53.726562-120 120-120s120 53.722657 120 120c-.074219 66.242188-53.757812 119.921876-120 120zm0 0" data-original="#000000" class=""/><path d="m416 136.945312h96v16h-96zm0 0" data-original="#000000" class=""/><path d="m416 168.945312h64v16h-64zm0 0" data-original="#000000" class=""/><path d="m416 200.945312h32v16h-32zm0 0" data-original="#000000" class=""/><path d="m346.542969 363.289062-28.277344-28.28125-45.257813 45.25 73.535157 73.535157 124.449219-124.449219-45.257813-45.246094zm0 67.878907-50.910157-50.910157 22.632813-22.625 28.277344 28.277344 79.199219-79.199218 22.632812 22.625zm0 0" data-original="#000000" class=""/></g> </svg>
