<?xml version="1.0"?>
<svg xmlns="http://www.w3.org/2000/svg" height="512px" viewBox="0 0 384 384" width="512px" class=""><g><path d="m32 32h320v16h-320zm0 0" fill="#ff7043" data-original="#FF7043" class="" style="fill:#FFFFFF" data-old_color="#ff7043"/><path d="m320 80v208h-256v-208zm-64 104c0-5.601562-2.960938-10.800781-7.761719-13.679688l-80-48c-4.957031-3.039062-11.117187-3.121093-16.160156-.242187-4.957031 2.800781-8.078125 8.160156-8.078125 13.921875v96c0 5.761719 3.121094 11.121094 8.078125 13.921875 2.480469 1.4375 5.203125 2.078125 7.921875 2.078125 2.878906 0 5.679688-.71875 8.238281-2.238281l80-48c4.800781-2.960938 7.761719-8.160157 7.761719-13.761719zm0 0" fill="#4dd0e1" data-original="#4DD0E1" class="active-path" style="fill:#FFFFFF" data-old_color="#4dd0e1"/><path d="m208.878906 184-32.878906 19.761719v-39.523438zm0 0" fill="#ff8a65" data-original="#FF8A65" class="" style="fill:#057EE6" data-old_color="#ff8a65"/><g fill="#012e52"><path d="m368 0h-352c-8.800781 0-16 7.199219-16 16v48c0 8.800781 7.199219 16 16 16h16v224c0 8.800781 7.199219 16 16 16h128v48c0 8.800781 7.199219 16 16 16s16-7.199219 16-16v-48h128c8.800781 0 16-7.199219 16-16v-224h16c8.800781 0 16-7.199219 16-16v-48c0-8.800781-7.199219-16-16-16zm-48 288h-256v-208h256zm32-240h-320v-16h320zm0 0" data-original="#012E52" class="" style="fill:#525252" data-old_color="#012E52"/><path d="m152.078125 245.921875c2.480469 1.4375 5.203125 2.078125 7.921875 2.078125 2.878906 0 5.679688-.71875 8.238281-2.238281l80-48c4.800781-2.960938 7.761719-8.160157 7.761719-13.761719s-2.960938-10.800781-7.761719-13.679688l-80-48c-4.957031-3.039062-11.117187-3.121093-16.160156-.242187-4.957031 2.800781-8.078125 8.160156-8.078125 13.921875v96c0 5.761719 3.121094 11.121094 8.078125 13.921875zm23.921875-81.683594 32.878906 19.761719-32.878906 19.761719zm0 0" data-original="#012E52" class="" style="fill:#525252" data-old_color="#012E52"/></g></g> </svg>
