<?xml version="1.0" encoding="utf-8"?>
<!-- Generator: Adobe Illustrator 23.0.0, SVG Export Plug-In . SVG Version: 6.00 Build 0)  -->
<svg version="1.1" id="Capa_1" xmlns="http://www.w3.org/2000/svg" xmlns:xlink="http://www.w3.org/1999/xlink" x="0px" y="0px"
	 viewBox="0 0 55.9 55.9" style="enable-background:new 0 0 55.9 55.9;" xml:space="preserve">
<style type="text/css">
	.st0{fill:none;stroke:#525252;stroke-miterlimit:10;}
	.st1{fill:#FFFFFF;}
	.st2{fill:#057EE6;}
</style>
<path class="st0" d="M18.8,50.4c-0.2,0-0.3,0-0.4-0.1c-0.2-0.2-0.4-0.5-0.3-0.7l2.4-13.7l-10-9.7c-0.2-0.2-0.3-0.5-0.2-0.8
	s0.3-0.5,0.6-0.5l13.8-2l6.2-12.5c0.1-0.3,0.4-0.4,0.7-0.4l0,0c0.3,0,0.6,0.2,0.7,0.4l6.2,12.5l13.8,2c0.3,0,0.5,0.2,0.6,0.5
	s0,0.6-0.2,0.8l-10,9.7l2.4,13.7c0,0.3-0.1,0.6-0.3,0.7c-0.2,0.2-0.5,0.2-0.8,0.1l-12.3-6.5l-12.3,6.5C19,50.4,18.9,50.4,18.8,50.4z
	"/>
<polygon class="st1" points="37.4,47.2 38.9,49 41.1,50.7 43.9,50.9 45.3,49.7 43.7,47 40.1,46.7 "/>
<rect x="43.1" y="42.7" class="st1" width="3" height="8"/>
<path class="st1" d="M35.8,49.8h13.3c0.5,0,0.9,0.4,0.9,0.9V51c0,0.5-0.4,0.9-0.9,0.9H35.8c-0.5,0-0.9-0.4-0.9-0.9v-0.3
	C34.9,50.2,35.3,49.8,35.8,49.8z"/>
<path class="st2" d="M48.8,51.7H36.1c-0.5,0-0.8-0.4-0.8-0.8l0,0c0-0.5,0.4-0.8,0.8-0.8h12.6c0.5,0,0.8,0.4,0.8,0.8l0,0
	C49.6,51.3,49.2,51.7,48.8,51.7z"/>
<path class="st1" d="M35.8,46h13.3c0.5,0,0.9,0.4,0.9,0.9v0.3c0,0.5-0.4,0.9-0.9,0.9H35.8c-0.5,0-0.9-0.4-0.9-0.9v-0.3
	C34.9,46.4,35.3,46,35.8,46z"/>
<path class="st2" d="M48.8,47.8H36.1c-0.5,0-0.8-0.4-0.8-0.8l0,0c0-0.5,0.4-0.8,0.8-0.8h12.6c0.5,0,0.8,0.4,0.8,0.8l0,0
	C49.6,47.5,49.2,47.8,48.8,47.8z"/>
<path class="st1" d="M35.8,42h13.3c0.5,0,0.9,0.4,0.9,0.9v0.3c0,0.5-0.4,0.9-0.9,0.9H35.8c-0.5,0-0.9-0.4-0.9-0.9v-0.3
	C34.9,42.4,35.3,42,35.8,42z"/>
<path class="st2" d="M48.8,43.9H36.1c-0.5,0-0.8-0.4-0.8-0.8v0c0-0.5,0.4-0.8,0.8-0.8h12.6c0.5,0,0.8,0.4,0.8,0.8v0
	C49.6,43.5,49.2,43.9,48.8,43.9z"/>
</svg>
