<?xml version="1.0" encoding="iso-8859-1"?>
<!-- Generator: Adobe Illustrator 19.0.0, SVG Export Plug-In . SVG Version: 6.00 Build 0)  -->
<svg version="1.1" id="Layer_1" xmlns="http://www.w3.org/2000/svg" xmlns:xlink="http://www.w3.org/1999/xlink" x="0px" y="0px"
	 viewBox="0 0 512 512" style="enable-background:new 0 0 512 512;" xml:space="preserve">
<g>
	<g>
		<path d="M504.625,236.313c-38.813-38.917-114.667-109.083-159.979-151.01l-13.771-12.74C324.938,67.042,317.271,64,309.333,64
			c-17.646,0-32,14.354-32,32v74.667H42.667C19.146,170.667,0,189.802,0,213.333v85.333c0,23.531,19.146,42.667,42.667,42.667
			h234.667V416c0,17.646,14.354,32,32,32c7.938,0,15.604-3.042,21.542-8.563l13.771-12.74
			c45.313-41.927,121.167-112.094,159.979-151.021C509.375,270.885,512,263.906,512,256S509.375,241.115,504.625,236.313z
			 M489.5,260.625C451,299.24,375.354,369.219,330.146,411.042l-13.771,12.75c-1.417,1.313-3.792,2.875-7.042,2.875
			c-5.875,0-10.667-4.781-10.667-10.667v-85.333c0-5.896-4.771-10.667-10.667-10.667H42.667c-11.771,0-21.333-9.573-21.333-21.333
			v-85.333c0-11.76,9.563-21.333,21.333-21.333H288c5.896,0,10.667-4.771,10.667-10.667V96c0-5.885,4.792-10.667,10.667-10.667
			c3.25,0,5.625,1.563,7.042,2.875l13.771,12.75C375.354,142.781,451,212.76,489.5,251.365c0.583,0.583,1.167,2.25,1.167,4.635
			S490.083,260.052,489.5,260.625z"/>
	</g>
</g>
<g>
</g>
<g>
</g>
<g>
</g>
<g>
</g>
<g>
</g>
<g>
</g>
<g>
</g>
<g>
</g>
<g>
</g>
<g>
</g>
<g>
</g>
<g>
</g>
<g>
</g>
<g>
</g>
<g>
</g>
</svg>
