<?xml version="1.0" encoding="utf-8"?>
<!-- Generator: Adobe Illustrator 23.0.0, SVG Export Plug-In . SVG Version: 6.00 Build 0)  -->
<svg version="1.1" id="Layer_1" xmlns="http://www.w3.org/2000/svg" xmlns:xlink="http://www.w3.org/1999/xlink" x="0px" y="0px"
	 viewBox="0 0 500 500" style="enable-background:new 0 0 500 500;" xml:space="preserve">
<style type="text/css">
	.st0{fill:#525252;}
	.st1{fill:#FFFFFF;}
	.st2{fill:#057EE6;}
</style>
<g>
	<g>
		<path class="st0" d="M405.93,377.24H42.02c-4.23,0-8.03-3.38-8.03-8.03V132.1c0-4.23,3.38-8.03,8.03-8.03h363.91
			c4.23,0,8.03,3.38,8.03,8.03v237.32C413.75,373.85,410.36,377.24,405.93,377.24z M49.84,361.39H397.9V139.91H49.84V361.39z"/>
	</g>
	<g>
		<path class="st0" d="M405.93,187.46H42.02c-4.23,0-8.03-3.38-8.03-8.03c0-4.23,3.38-8.03,8.03-8.03h363.91
			c4.23,0,8.03,3.38,8.03,8.03C413.75,183.87,410.36,187.46,405.93,187.46z"/>
	</g>
	<g>
		<path class="st0" d="M405.93,250.65H42.02c-4.23,0-8.03-3.38-8.03-8.03c0-4.23,3.38-8.03,8.03-8.03h363.91
			c4.23,0,8.03,3.38,8.03,8.03C413.75,247.27,410.36,250.65,405.93,250.65z"/>
	</g>
	<g>
		<path class="st0" d="M405.93,314.05H42.02c-4.23,0-8.03-3.38-8.03-8.03c0-4.23,3.38-8.03,8.03-8.03h363.91
			c4.23,0,8.03,3.38,8.03,8.03C413.75,310.46,410.36,314.05,405.93,314.05z"/>
	</g>
	<g>
		<path class="st0" d="M169.24,377.24c-4.23,0-8.03-3.38-8.03-8.03V179.22c0-4.23,3.38-8.03,8.03-8.03c4.65,0,8.03,3.38,8.03,8.03
			V369.2C177.27,373.85,173.47,377.24,169.24,377.24z"/>
	</g>
	<g>
		<path class="st0" d="M279.55,377.24c-4.23,0-8.03-3.38-8.03-8.03V187.25c0-4.23,3.38-8.03,8.03-8.03c4.23,0,8.03,3.38,8.03,8.03
			V369.2C287.16,373.85,283.78,377.24,279.55,377.24z"/>
	</g>
</g>
<circle class="st1" cx="406.35" cy="297.99" r="59.81"/>
<path class="st0" d="M441.01,270.51c-3.38,0-6.34,2.96-6.34,6.34c0,1.27,0.21,2.32,1.06,3.17l-14.37,20.92c-0.21,0-0.63,0-1.06,0
	c-0.21,0-0.63,0-0.63,0l-10.14-17.54c0.85-1.06,1.27-2.32,1.27-4.02c0-3.38-2.96-6.34-6.34-6.34s-6.34,2.96-6.34,6.34
	c0,1.27,0.63,2.75,1.27,3.8l-12.68,22.61c-0.85,0-1.27,0.21-1.9,0.63l-6.97-7.61c0.21-0.63,0.21-1.06,0.21-1.69
	c0-3.38-2.96-6.34-6.34-6.34s-6.34,2.96-6.34,6.34c0,0.63,0,1.06,0.21,1.69l-16.91,17.75c-1.06,1.06-1.06,2.96,0,4.02
	c0.63,0.63,1.27,0.85,1.9,0.85c0.85,0,1.69-0.21,2.11-0.85l16.69-17.54c0.85,0.21,1.69,0.63,2.32,0.63c0.63,0,1.69-0.21,2.32-0.63
	l6.97,7.61c-0.21,0.63-0.21,1.06-0.21,1.69c0,3.38,2.96,6.34,6.34,6.34s6.34-2.96,6.34-6.34c0-1.69-0.63-2.96-1.69-4.02l12.47-21.98
	l10.36,17.96c-0.63,1.06-0.85,2.11-0.85,3.17c0,3.38,2.96,6.34,6.34,6.34c3.38,0,6.34-2.96,6.34-6.34c0-1.06-0.21-2.11-0.85-2.96
	l14.58-21.13c0.21,0,0.21,0,0.63,0c3.38,0,6.34-2.96,6.34-6.34C447.14,273.26,444.6,270.51,441.01,270.51z"/>
<g>
	<path class="st2" d="M406.35,361.81c-36.48,0-66.15-29.67-66.15-66.15s29.67-66.15,66.15-66.15s66.15,29.68,66.15,66.15
		S442.82,361.81,406.35,361.81z M406.35,240.51c-30.41,0-55.15,24.74-55.15,55.15s24.74,55.15,55.15,55.15s55.15-24.74,55.15-55.15
		S436.76,240.51,406.35,240.51z"/>
</g>
</svg>
