<?xml version="1.0" encoding="utf-8"?>
<!-- Generator: Adobe Illustrator 23.0.0, SVG Export Plug-In . SVG Version: 6.00 Build 0)  -->
<svg version="1.1" id="Layer_1" xmlns="http://www.w3.org/2000/svg" xmlns:xlink="http://www.w3.org/1999/xlink" x="0px" y="0px"
	 viewBox="0 0 512 512" style="enable-background:new 0 0 512 512;" xml:space="preserve">
<style type="text/css">
	.st0{fill:#525252;}
	.st1{fill:#057EE6;}
</style>
<path class="st0" d="M493.6,215.6h-12.5v-84.4c0-19.8-15.6-35.4-34.4-35.4h-9.4V39.4C437.3,19.6,422.7,4,405,4c0,0-1,0-2.1,0
	L46.3,95.7c-0.1,0-0.3,0.1-0.4,0.1C28.3,97.2,14,112.3,14,131.2v327.4c0,19.8,15.6,35.4,34.4,35.4h398.3c19.8,0,35.4-15.6,35.4-35.4
	V372h11.5c6.3,0,10.4-4.2,10.4-10.4V226.1C504,219.8,498.8,215.6,493.6,215.6z M407,23.8c5.2,1,10.4,7.3,10.4,15.6v56.3H129.7
	L407,23.8L407,23.8z M461.3,458.6c0,8.3-6.3,15.6-14.6,15.6H48.4c-8.3,0-14.6-7.3-14.6-15.6V131.2c0-8.3,6.3-15.6,14.6-15.6h397.2
	c8.3,0,14.6,7.3,14.6,15.6v84.4H357c-43.8,0-78.2,34.4-78.2,78.2c0,43.8,35.4,78.2,78.2,78.2h104.3V458.6L461.3,458.6z M483.1,352.2
	H357c-31.3,0-57.3-26.1-57.3-57.3s26.1-57.3,57.3-57.3h126.1V352.2z"/>
<path class="st1" d="M345.5,295.9c0,6.3,5.2,10.4,10.4,10.4h9.4c5.2,0,10.4-4.2,10.4-10.4c0-6.3-5.2-10.4-10.4-10.4H356
	C349.7,285.5,345.5,289.7,345.5,295.9z"/>
<path class="st1" d="M495.1,214.6H356.9c-43.4,0-78.6,35.2-78.6,78.6v0.2c0,43.4,35.2,78.6,78.6,78.6h138.2c5.5,0,10-4.5,10-10
	V224.6C505.1,219.1,500.6,214.6,495.1,214.6z M483.1,352.2H356.9c-31.6,0-57.3-25.6-57.3-57.3v-0.1c0-31.6,25.6-57.3,57.3-57.3
	h126.2V352.2z"/>
</svg>
