<?xml version="1.0" encoding="utf-8"?>
<!-- Generator: Adobe Illustrator 23.0.0, SVG Export Plug-In . SVG Version: 6.00 Build 0)  -->
<svg version="1.1" id="Capa_1" xmlns="http://www.w3.org/2000/svg" xmlns:xlink="http://www.w3.org/1999/xlink" x="0px" y="0px"
	 viewBox="0 0 52.1 52.1" style="enable-background:new 0 0 52.1 52.1;" xml:space="preserve">
<style type="text/css">
	.st0{fill:#525252;}
</style>
<g>
	<path class="st0" d="M29.4,48.4L29.4,48.4c-0.3,0-0.6-0.1-0.9-0.3l-6.8-4.8c-0.4-0.3-0.7-0.8-0.7-1.3V23.7c0,0,0-0.1,0-0.1L5.4,8.1
		C4.9,7.6,4.8,6.9,5,6.3c0.2-0.6,0.8-1,1.5-1h38.7c0.6,0,1.2,0.4,1.5,1c0.2,0.6,0.1,1.3-0.3,1.8L31,23.6c0,0,0,0,0,0.1v23
		c0,0.4-0.2,0.9-0.5,1.2C30.2,48.2,29.8,48.4,29.4,48.4z M6.5,6.8c0,0-0.1,0-0.1,0.1c0,0.1,0,0.1,0,0.1l15.5,15.6
		c0.3,0.3,0.5,0.7,0.5,1.1v18.1c0,0,0,0.1,0,0.1l6.8,4.9c0,0,0,0,0.1,0l0,0c0,0,0.1,0,0.1,0c0,0,0,0,0-0.1v-23
		c0-0.4,0.1-0.8,0.4-1.1L45.3,7c0,0,0,0,0-0.1c-0.1-0.1-0.1-0.1-0.2-0.1H6.5z"/>
</g>
</svg>
