<?xml version="1.0" encoding="utf-8"?>
<!-- Generator: Adobe Illustrator 23.0.0, SVG Export Plug-In . SVG Version: 6.00 Build 0)  -->
<svg version="1.1" id="Layer_1" xmlns="http://www.w3.org/2000/svg" xmlns:xlink="http://www.w3.org/1999/xlink" x="0px" y="0px"
	 viewBox="0 0 500 500" style="enable-background:new 0 0 500 500;" xml:space="preserve">
<style type="text/css">
	.st0{fill:#525252;}
	.st1{fill:#057EE6;}
</style>
<path class="st0" d="M138.03,56.54h249.25v0.53c-14.67,22.67-22.96,34.77-24.88,36.32h-66.59c9.15,10.74,15.36,23.78,18.67,39.18h71
	c0.86,0.16,1.31,0.53,1.31,1.02c-15.89,23.86-24.02,35.83-24.35,35.83h-46.17c-1.02,12.3-6.9,27.09-17.61,44.37
	c-14.18,17.49-27.74,28.8-40.69,33.99c-24.19,11.6-47.35,17.4-69.45,17.4v0.53c0,1.72,50.01,61.16,150.02,178.29h-66.02
	c-97.44-113.66-146.13-170.77-146.13-171.26v-34.52l0.53-1.31c8.62,1.23,18.75,1.8,30.31,1.8c54.58,0,88.53-17.73,101.85-53.19
	c2.08-5.19,3.1-10.54,3.1-16.1H113.93c-0.69,0-1.02-0.33-1.02-1.02c16.42-23.86,24.8-35.83,25.13-35.83h117.62v-0.53
	c-6.74-13.65-19.77-24.31-39.14-31.91c-13.81-4.49-26.27-6.74-37.3-6.74h-65.82v-1.31C129.29,68.39,137.5,56.54,138.03,56.54z"/>
<polygon class="st1" points="362.4,169.42 111.56,169.42 138.03,132.57 388.91,132.57 "/>
</svg>
