<?xml version="1.0" encoding="utf-8"?>
<!-- Generator: Adobe Illustrator 23.0.0, SVG Export Plug-In . SVG Version: 6.00 Build 0)  -->
<svg version="1.1" id="Capa_1" xmlns="http://www.w3.org/2000/svg" xmlns:xlink="http://www.w3.org/1999/xlink" x="0px" y="0px"
	 viewBox="0 0 489.7 489.7" style="enable-background:new 0 0 489.7 489.7;" xml:space="preserve">
<style type="text/css">
	.st0{fill:#525252;}
</style>
<g>
	<g>
		<path class="st0" d="M91.9,94.2h301.5c6.8,0,12.3-5.5,12.3-12.3s-5.5-12.3-12.3-12.3H91.9c-6.8,0-12.3,5.5-12.3,12.3
			S85.1,94.2,91.9,94.2z"/>
		<path class="st0" d="M91.9,257.1h301.5c6.8,0,12.3-5.5,12.3-12.3s-5.5-12.3-12.3-12.3H91.9c-6.8,0-12.3,5.5-12.3,12.3
			S85.1,257.1,91.9,257.1z"/>
		<path class="st0" d="M91.9,420h301.5c6.8,0,12.3-5.5,12.3-12.3s-5.5-12.3-12.3-12.3H91.9c-6.8,0-12.3,5.5-12.3,12.3
			S85.1,420,91.9,420z"/>
	</g>
</g>
</svg>
