<?xml version="1.0" encoding="utf-8"?>
<!-- Generator: Adobe Illustrator 23.0.0, SVG Export Plug-In . SVG Version: 6.00 Build 0)  -->
<svg version="1.1" id="Layer_1" xmlns="http://www.w3.org/2000/svg" xmlns:xlink="http://www.w3.org/1999/xlink" x="0px" y="0px"
	 viewBox="0 0 500 500" style="enable-background:new 0 0 500 500;" xml:space="preserve">
<style type="text/css">
	.st0{fill:#057EE6;}
	.st1{fill:#525252;}
</style>
<g>
	<path class="st0" d="M327.3,291.1C327.3,291.1,327.3,291.1,327.3,291.1c-9,9-8.9,23.5,0,32.4c8.9,8.9,23.4,8.9,32.3-0.1l68.5-68.5
		c0,0,0,0,0,0c8.9-8.9,8.9-23.4,0-32.3L359.6,154c-8.9-8.9-23.3-8.9-32.2,0c-8.9,8.9-9,23.4-0.1,32.3l29.5,29.5H183.6
		c-12.6,0-22.8,10.2-22.8,22.8c0,12.6,10.2,22.8,22.8,22.8h173.3L327.3,291.1z"/>
	<path class="st1" d="M92.2,55.9c-12.6,0-22.8,10.2-22.8,22.8v319.8c0,0,0,0,0,0c0,12.6,10.2,22.8,22.8,22.8H275c0,0,0,0,0,0
		c12.6,0,22.8-10.2,22.8-22.8v-45.7c0-12.6-10.2-22.8-22.8-22.8c-12.6,0-22.8,10.2-22.8,22.8v22.8H115.1V101.6h137.1v22.8
		c0,12.6,10.2,22.8,22.8,22.8c12.6,0,22.8-10.2,22.8-22.8V78.8c0,0,0,0,0,0c0-12.6-10.2-22.8-22.8-22.8H92.2
		C92.2,55.9,92.2,55.9,92.2,55.9z"/>
</g>
</svg>
