<?xml version="1.0" encoding="utf-8"?>
<!-- Generator: Adobe Illustrator 23.0.0, SVG Export Plug-In . SVG Version: 6.00 Build 0)  -->
<svg version="1.1" id="Capa_1" xmlns="http://www.w3.org/2000/svg" xmlns:xlink="http://www.w3.org/1999/xlink" x="0px" y="0px"
	 viewBox="0 0 55.9 55.9" style="enable-background:new 0 0 55.9 55.9;" xml:space="preserve">
<style type="text/css">
	.st0{fill:#525252;}
	.st1{fill:#057EE6;}
	.st2{fill:#FFFFFF;}
</style>
<path class="st0" d="M18.8,50.4c-0.2,0-0.3,0-0.4-0.1c-0.2-0.2-0.4-0.5-0.3-0.7l2.4-13.7l-10-9.7c-0.2-0.2-0.3-0.5-0.2-0.8
	c0.1-0.3,0.3-0.5,0.6-0.5l13.8-2l6.2-12.5c0.1-0.3,0.4-0.4,0.7-0.4l0,0c0.3,0,0.6,0.2,0.7,0.4l6.2,12.5l13.8,2
	c0.3,0,0.5,0.2,0.6,0.5c0.1,0.3,0,0.6-0.2,0.8l-10,9.7l2.4,13.7c0,0.3-0.1,0.6-0.3,0.7c-0.2,0.2-0.5,0.2-0.8,0.1l-12.3-6.5
	l-12.3,6.5C19,50.4,18.9,50.4,18.8,50.4z M12.6,26.1l9.2,8.9c0.2,0.2,0.3,0.4,0.2,0.7l-2.2,12.6l11.3-5.9c0.2-0.1,0.5-0.1,0.7,0
	l11.3,5.9L41,35.7c0-0.2,0-0.5,0.2-0.7l9.2-8.9l-12.7-1.8c-0.2,0-0.5-0.2-0.6-0.4l-5.7-11.5l-5.7,11.5c-0.1,0.2-0.3,0.4-0.6,0.4
	L12.6,26.1z"/>
<g>
	<path class="st1" d="M35.3,42c-1,0-1.8-0.8-1.8-1.7s0.8-1.7,1.8-1.7h13.4c1,0,1.8,0.8,1.8,1.7S49.7,42,48.7,42H35.3z"/>
	<path class="st2" d="M48.7,39.1c0.7,0,1.3,0.6,1.3,1.2s-0.6,1.2-1.3,1.2H35.3c-0.7,0-1.3-0.6-1.3-1.2s0.6-1.2,1.3-1.2H48.7
		 M48.7,38.1H35.3c-1.3,0-2.3,1-2.3,2.2c0,1.2,1.1,2.2,2.3,2.2h13.4c1.3,0,2.3-1,2.3-2.2C51.1,39.1,50,38.1,48.7,38.1L48.7,38.1z"/>
</g>
<g>
	<path class="st1" d="M35.3,46.5c-1,0-1.8-0.8-1.8-1.7s0.8-1.7,1.8-1.7h13.4c1,0,1.8,0.8,1.8,1.7s-0.8,1.7-1.8,1.7H35.3z"/>
	<path class="st2" d="M48.7,43.5c0.7,0,1.3,0.6,1.3,1.2S49.5,46,48.7,46H35.3c-0.7,0-1.3-0.6-1.3-1.2s0.6-1.2,1.3-1.2H48.7
		 M48.7,42.5H35.3c-1.3,0-2.3,1-2.3,2.2C33,46,34,47,35.3,47h13.4c1.3,0,2.3-1,2.3-2.2C51.1,43.5,50,42.5,48.7,42.5L48.7,42.5z"/>
</g>
<g>
	<path class="st1" d="M35.3,50.9c-1,0-1.8-0.8-1.8-1.7s0.8-1.7,1.8-1.7h13.4c1,0,1.8,0.8,1.8,1.7s-0.8,1.7-1.8,1.7H35.3z"/>
	<path class="st2" d="M48.7,47.9c0.7,0,1.3,0.6,1.3,1.2c0,0.7-0.6,1.2-1.3,1.2H35.3c-0.7,0-1.3-0.6-1.3-1.2c0-0.7,0.6-1.2,1.3-1.2
		H48.7 M48.7,46.9H35.3c-1.3,0-2.3,1-2.3,2.2c0,1.2,1.1,2.2,2.3,2.2h13.4c1.3,0,2.3-1,2.3-2.2C51.1,47.9,50,46.9,48.7,46.9
		L48.7,46.9z"/>
</g>
</svg>
