<?xml version="1.0" encoding="utf-8"?>
<!-- Generator: Adobe Illustrator 23.0.0, SVG Export Plug-In . SVG Version: 6.00 Build 0)  -->
<svg version="1.1" id="Capa_1" xmlns="http://www.w3.org/2000/svg" xmlns:xlink="http://www.w3.org/1999/xlink" x="0px" y="0px"
	 viewBox="0 0 60 60" style="enable-background:new 0 0 60 60;" xml:space="preserve">
<style type="text/css">
	.st0{fill:#525252;}
	.st1{fill:#057EE6;}
</style>
<g>
	<path class="st0" d="M35.6,23.3H13.9c-0.5,0-0.9,0.4-0.9,0.9s0.4,0.9,0.9,0.9h21.7c0.5,0,0.9-0.4,0.9-0.9S36.1,23.3,35.6,23.3z"/>
	<path class="st0" d="M13.9,18.1h8.7c0.5,0,0.9-0.4,0.9-0.9s-0.4-0.9-0.9-0.9h-8.7c-0.5,0-0.9,0.4-0.9,0.9S13.4,18.1,13.9,18.1z"/>
	<path class="st0" d="M35.6,30.2H13.9c-0.5,0-0.9,0.4-0.9,0.9s0.4,0.9,0.9,0.9h21.7c0.5,0,0.9-0.4,0.9-0.9S36.1,30.2,35.6,30.2z"/>
	<path class="st0" d="M28.7,37.2H13.9c-0.5,0-0.9,0.4-0.9,0.9s0.4,0.9,0.9,0.9h14.8c0.5,0,0.9-0.4,0.9-0.9S29.1,37.2,28.7,37.2z"/>
	<path class="st0" d="M26,45.9c0.5,0,0.9-0.4,0.9-0.9s-0.4-0.9-0.9-0.9H13.9c-0.5,0-0.9,0.4-0.9,0.9s0.4,0.9,0.9,0.9H26z"/>
	<path class="st0" d="M6.1,5.9h25.2v12.2h12.2v15.6h1.7V16.9L32.5,4.2H4.3v52.1h25.2v-1.7H6.1C6.1,54.5,6.1,5.9,6.1,5.9z M33,7.1
		l9.2,9.2H33V7.1z"/>
	<path class="st1" d="M54.4,36.5L52,34c-1-1-2.7-1-3.7,0L34.9,47.3l-1.8,6.8l-0.5,0.5c-0.3,0.3-0.3,0.9,0,1.2l0,0l0,0
		c0.2,0.2,0.4,0.2,0.6,0.2c0.2,0,0.4-0.1,0.6-0.3l0.5-0.5l6.8-1.8l13.4-13.4c0.5-0.5,0.8-1.1,0.8-1.8C55.2,37.6,54.9,36.9,54.4,36.5
		z M36.9,47.8l8.9-8.9l3.7,3.7l-8.9,8.9L36.9,47.8z M36.1,49.5l2.8,2.8l-3.8,1L36.1,49.5z M53.2,38.9l-2.5,2.5l-3.7-3.7l2.5-2.5
		c0.3-0.3,0.9-0.3,1.2,0l2.5,2.5c0.2,0.2,0.3,0.4,0.3,0.6C53.5,38.5,53.4,38.7,53.2,38.9z"/>
</g>
</svg>
