<?xml version="1.0" encoding="utf-8"?>
<!-- Generator: Adobe Illustrator 23.0.0, SVG Export Plug-In . SVG Version: 6.00 Build 0)  -->
<svg version="1.1" id="Layer_1" xmlns="http://www.w3.org/2000/svg" xmlns:xlink="http://www.w3.org/1999/xlink" x="0px" y="0px"
	 viewBox="0 0 500 500" style="enable-background:new 0 0 500 500;" xml:space="preserve">
<style type="text/css">
	.st0{fill:#525252;}
	.st1{fill:#057EE6;}
</style>
<path class="st0" d="M295.66,230.31l-51.76-51.76c-6.46-6.46-15.27-9.97-24.09-9.97c-8.82,0-17.64,3.52-24.09,9.97L38.13,336.13
	c-13.54,13.54-13.54,35.27,0,48.24c6.46,6.46,15.27,9.97,24.09,9.97s17.64-3.52,24.09-9.97L219.8,250.88l52.33,52.33
	c13.54,13.54,35.27,13.54,48.24,0l14.7-14.7v1.15l78.79-78.79l-51.24-47.55L295.66,230.31z"/>
<polygon points="413.87,210.88 415.02,211.98 415.02,211.98 "/>
<path class="st1" d="M462.69,102.7c-0.58,0-1.15,0-1.79,0l-121.15,18.79c-4.09,0.58-7.03,3.52-8.24,7.67
	c-1.21,4.15,0.58,8.24,3.52,10.61l17.87,14.52l9.68,8.99l51.24,47.55l0,0l1.15,1.1l27.61,25.94c1.79,1.79,4.09,2.94,7.03,2.94
	c1.15,0,2.36,0,3.52-0.58c3.52-1.15,5.88-4.73,6.46-8.24l12.33-117c0-0.58,0-1.15,0-1.79C472.66,106.79,468.57,102.7,462.69,102.7z"
	/>
</svg>
