<?xml version="1.0" encoding="utf-8"?>
<!-- Generator: Adobe Illustrator 23.0.0, SVG Export Plug-In . SVG Version: 6.00 Build 0)  -->
<svg version="1.1" id="Layer_1" xmlns="http://www.w3.org/2000/svg" xmlns:xlink="http://www.w3.org/1999/xlink" x="0px" y="0px"
	 viewBox="0 0 500 500" style="enable-background:new 0 0 500 500;" xml:space="preserve">
<style type="text/css">
	.st0{fill:#525252;}
	.st1{fill:#057EE6;}
</style>
<g>
	<path class="st0" d="M408.36,426.77H108.1V30.52h208.35v78.63h91.91V426.77z M131.1,403.77h254.26V132.15h-76.32
		c-8.74,0-15.58-6.62-15.58-15.07V53.52H131.1V403.77z"/>
</g>
<path class="st1" d="M337.12,360.13H179.34c-11.61,0-17.87-9.21-17.87-17.87c0-4.56,1.59-8.86,4.49-12.12
	c3.3-3.71,8.05-5.75,13.38-5.75h157.78c11.61,0,17.87,9.21,17.87,17.87C354.99,350.92,348.73,360.13,337.12,360.13z"/>
<path class="st1" d="M337.12,296.3H179.34c-10.19,0-17.87-7.79-17.87-18.13c0-4.6,1.57-8.94,4.43-12.23
	c3.3-3.8,8.07-5.89,13.44-5.89h157.78c10.19,0,17.87,7.79,17.87,18.13C354.99,288.51,347.31,296.3,337.12,296.3z"/>
<path class="st1" d="M337.12,231.96H179.34c-11.61,0-17.87-9.21-17.87-17.87c0-4.56,1.59-8.86,4.49-12.12
	c3.3-3.71,8.05-5.75,13.38-5.75h157.78c11.61,0,17.87,9.21,17.87,17.87C354.99,222.76,348.73,231.96,337.12,231.96z"/>
<polygon class="st1" points="409.99,96.14 332.01,96.14 332.01,28.98 "/>
<g>
	<rect x="293.43" y="109.15" class="st0" width="87.84" height="23"/>
</g>
</svg>
